<?xml version="1.0" encoding="UTF-8"?>
<svg id="OBJECTS" xmlns="http://www.w3.org/2000/svg" xmlns:xlink="http://www.w3.org/1999/xlink" viewBox="0 0 868.13 578.78">
  <defs>
    <style>
      .cls-1 {
        fill: #f26f00;
      }

      .cls-1, .cls-2, .cls-3, .cls-4, .cls-5, .cls-6, .cls-7 {
        stroke-width: 0px;
      }

      .cls-2, .cls-8, .cls-9 {
        fill: none;
      }

      .cls-8, .cls-10 {
        stroke: #141414;
      }

      .cls-8, .cls-10, .cls-9 {
        stroke-miterlimit: 10;
        stroke-width: 2px;
      }

      .cls-8, .cls-9 {
        stroke-linecap: round;
      }

      .cls-3 {
        fill: #141414;
      }

      .cls-4 {
        fill: #a6581c;
      }

      .cls-5 {
        fill: #ffba59;
      }

      .cls-6 {
        fill: #79a2d3;
        opacity: .17;
      }

      .cls-11 {
        clip-path: url(#clippath);
      }

      .cls-7, .cls-10 {
        fill: #fff;
      }

      .cls-9 {
        stroke: #fff;
      }
    </style>
    <clipPath id="clippath">
      <circle class="cls-2" cx="132.91" cy="402.47" r="44.47" transform="translate(-76.11 33.75) rotate(-11.27)"/>
    </clipPath>
  </defs>
  <ellipse class="cls-6" cx="434.06" cy="440.17" rx="434.06" ry="39.62"/>
  <g>
    <g>
      <path class="cls-4" d="M346.44,189.85c-28.7,6.58-17.14,40.18-68.43,53.94-51.29,13.76-26.4,90.31,43.65,62.79,70.05-27.52,57.9-124.32,24.77-116.73Z"/>
      <path class="cls-5" d="M806.55,440.79h-67.75c4.37-14.57,13.48-25.69,21.06-32.92,4.44-4.24,8.35-7.14,10.49-8.62,1.09-.76,1.72-1.14,1.72-1.14l2.1,2.6,32.39,40.08Z"/>
      <path class="cls-5" d="M699.63,399.97l-13.65,40.82h-69.94c10.85-20.2,29.34-29.95,41.42-34.38.89-.32,1.73-.62,2.55-.89.43-.15.87-.29,1.28-.41,4.87-1.53,8.01-2.05,8.01-2.05l30.34-3.1Z"/>
      <path class="cls-5" d="M658.94,407.16s20.29-28.75,21.14-78.64,71.87-60.88,71.87-60.88l15.22,44.81-108.23,94.7Z"/>
      <path class="cls-5" d="M697.83,230.44s-67.41,125.4,71.03,117.53l1.69,58.34s43.12-66.8,42.28-69.33c-.85-2.54-114.99-106.54-114.99-106.54Z"/>
      <path class="cls-5" d="M833.48,337.16l-24.54,103.63h-54.62c.75-3.76,1.78-9.23,2.92-16.06h0c.84-4.97,1.73-10.62,2.62-16.86,2.36-16.71,4.66-37.54,5.6-59.73.27-6.56.42-13.25.42-19.99l-13.6,20.12-.63.94-61.93,91.58h-52.39l20.14-34.38,11.9-20.33,27.34-46.64,3.45-5.89,4.62-7.9-7.34,5.64-6.99,5.38-11.43,8.79h0l-10.16,7.82c-20.69,15.92-44.67,27.03-70.19,32.52l-146.02,31.39-38.8,14.31c-16.66,6.15-34.27,9.3-52.02,9.3h-130.07c-12.21,0-10.18-22.77-.41-30.11,9.98-7.5,15.84-8.17,33.12-16.15,8.36-5.13,17.33-10.27,26.2-15.14,9.87-5.41,19.6-10.48,28.21-14.84,4.68-2.37,9.02-4.53,12.88-6.43,1.15-.57,2.25-1.11,3.31-1.62h0c.11-.05.22-.11.31-.15,8.37-4.08,13.64-6.52,13.64-6.52l13.81-24.18,43.42-34.74,22.27-17.82,5.26-4.21,46.45-37.15h0s3.48-2.79,3.48-2.79c0,0,1.86.44,5.19.77h0c2.7.27,6.35.44,10.77.26,6.03-.26,13.48-1.21,21.83-3.61,1.84-.51,3.72-1.1,5.63-1.78,0,0,0,0,.02,0,10.05-3.52,21.16-9.17,32.54-18.07,9.09-7.11,22.74-20.66,33.64-31.91.13-.14.27-.28.39-.4,7.6-7.77,15.99-14.7,25.01-20.6,13.1-8.58,27.53-15.03,42.84-18.92,4.98-1.27,10.18-2.34,15.54-3.12,9.91-1.45,20.33-1.88,30.85-.66h0s.02,0,.07,0c16.63,1.96,33.5,8.06,48.84,20.86,0,0,0,0,0,0,23.24,19.41,42.99,54.25,53.23,113.44l15.49,24.59c5.62,8.93,8.81,19.05,9.42,29.4.36,5.98-.15,12.03-1.55,17.97Z"/>
      <path class="cls-5" d="M463.72,242.22c-.3,6.35,16.45,18.08,15.02,24.03-16.5,69.2-104.07,109.77-165.45,83.98-66.66-28.01-36.73-63.8-7.75-86.98,18.85-15.07,23.39-29.33,24.28-37.46.97-9.07,4.43-17.75,10.52-24.54,12.16-13.53,30.67-21.12,50.31-22.99,43.72-4.18,75.45,14.35,73.06,63.95Z"/>
      <path class="cls-8" d="M648.95,236.71s-31.44,117.44,116.37,112.39"/>
      <path class="cls-5" d="M702.18,143.24s33.67-64.19,29.8-128.18c-.49-8.16,5.95-15.06,14.12-15.06h0c6.79,0,12.61,4.82,13.9,11.48,4.36,22.47,10.64,77.67-7.64,163.59-24.49,115.08-50.19-31.83-50.19-31.83Z"/>
      <path class="cls-8" d="M278.51,440.44s.81-18.65,28.38-30.81c27.56-12.16,98.1-44.59,98.1-44.59"/>
      <path class="cls-8" d="M333.82,356.03s58.4,13.21,83.12-16.62"/>
      <path class="cls-3" d="M300.15,318.95l-13.21-20.89s6.39-19.61,38.79.43l-25.58,20.46Z"/>
      <path class="cls-1" d="M292.79,337.57s-14.97,41.01,5.24,47.6c26.19,8.54,21.13-41.82,21.13-41.82,0,0-8.7-1.65-15.55-10.53l-1.12.78c-2.01,3.31-5.95,4.92-9.71,3.97h0Z"/>
      <path class="cls-7" d="M462.86,241.36c-.3,6.35,17.31,18.94,15.88,24.89-11.56,16.62-31.06,27.54-53.18,27.54-35.5,0-64.27-28.12-64.27-62.81,0-22.1,11.69-41.55,29.36-52.72,43.72-4.18,74.59,13.49,72.2,63.09Z"/>
      <path class="cls-8" d="M390.66,178.27c21.62-3.11,51.94-1.8,69.76,32.69"/>
      <path class="cls-8" d="M378.69,255.74s6.8-18,16.8-21.2c10-3.2,16.8,12.4,17.2,26.39"/>
      <path class="cls-8" d="M337.9,248.94s2.4-16-4.8-20.4c-7.2-4.4-16.8,16.4-16.8,16.4"/>
      <path class="cls-7" d="M586.09,266.96c-25.55,3.99-52.92-26-64.59-40.62,1.84-.51,3.72-1.1,5.63-1.78,10.06-3.52,21.17-9.17,32.56-18.08,9.09-7.11,22.74-20.66,33.64-31.91.13-.14.27-.28.39-.4,25.38,29.36,21.47,88.25-7.63,92.8Z"/>
      <path class="cls-7" d="M665.94,167.15c-25,1.97-39.71-6.78-47.2-13.58,13.1-8.58,27.53-15.03,42.84-18.92,4.98-1.27,10.18-2.34,15.54-3.12,6.92,16.77,8.9,34.03-11.17,35.62Z"/>
      <path class="cls-8" d="M522.65,225.26s36.47-2.21,70.68-50.69"/>
      <path class="cls-8" d="M618.96,152.79s17.16-18.12,59.12-21.93"/>
      <path class="cls-4" d="M461.75,204.7c-15.53-1.94-23.83,11.93-25.82,27.46-4.15,32.42-35.02,123.93,38.39,115.58,54.82-6.24,27.04-138.08-12.57-143.03Z"/>
      <path class="cls-8" d="M249.8,409.96s-17.61,7.51-13.47,30.28"/>
      <path class="cls-8" d="M265.06,411.37s-15.26,4.93-13.38,28.88"/>
      <path class="cls-8" d="M296.19,439.56s.91-17.35,20.45-24.86"/>
      <path class="cls-8" d="M315.47,439.73s.4-15.08,17.43-21.09"/>
      <path class="cls-8" d="M626.78,440.25s3.8-13.1,18.18-17.96"/>
      <path class="cls-8" d="M641.15,439.4s2.54-8.67,15.43-15.22"/>
      <path class="cls-8" d="M748.56,440.08s3.2-12.82,16.02-22"/>
      <path class="cls-8" d="M763.3,440.08s-1.28-7.26,13.03-19.01"/>
      <path class="cls-8" d="M707.97,130.87s24.5,3.71,48.92,20.88"/>
      <path class="cls-8" d="M301.41,307.9s-6.61,14.22,4.63,27.45c11.24,13.23,41.34,12.9,50.6-6.28"/>
      <path class="cls-8" d="M287.37,335.12s8.64,7.93,15.99-2.13"/>
    </g>
    <path class="cls-8" d="M300.09,371.71c.19-.57-1.7-16.22,3.21-35.27"/>
  </g>
  <g>
    <circle class="cls-1" cx="132.68" cy="402.55" r="44.47" transform="translate(-285.78 469.96) rotate(-80.91)"/>
    <g class="cls-11">
      <path class="cls-9" d="M165.39,340.75s3.91,66.5-85.18,93.48"/>
    </g>
  </g>
  <ellipse class="cls-6" cx="563.95" cy="559.53" rx="125.16" ry="19.26"/>
  <path class="cls-10" d="M583.39,516.77l-43.02-41.55c2.17-3.37,3.18-7.51,2.52-11.79-1.44-9.27-10.12-15.61-19.39-14.17-9.27,1.44-15.61,10.12-14.17,19.39.19,1.24.52,2.42.96,3.54-1.2-.07-2.43-.03-3.67.16-9.27,1.44-15.61,10.12-14.17,19.39,1.44,9.27,10.12,15.61,19.39,14.17,4.9-.76,8.97-3.56,11.51-7.38l38.77,32.51,21.28-14.27Z"/>
  <path class="cls-5" d="M488.26,562.3l-6.41-50.61h171.36l-10.66,49.87s-155.04.74-154.3.74Z"/>
  <ellipse class="cls-7" cx="568.03" cy="536.26" rx="22.08" ry="11.4"/>
</svg>