<?xml version="1.0" encoding="UTF-8"?><svg id="Layer_1" xmlns="http://www.w3.org/2000/svg" viewBox="0 0 79.04 59.99"><defs><style>.cls-1{fill:#fff;stroke-width:0px;}</style></defs><path class="cls-1" d="M76.84,0H2.2C.97,0,0,.94,0,2.14v55.71c0,1.2.97,2.14,2.2,2.14h74.64c1.23,0,2.2-.94,2.2-2.14V2.14c0-1.2-.97-2.14-2.2-2.14ZM74.64,55.71H4.39V4.29h70.25v51.43h0Z"/><path class="cls-1" d="M9.92,38.57h59.27c.61,0,1.14-.51,1.14-1.11s-.53-1.11-1.14-1.11H9.92c-.61,0-1.14.51-1.14,1.11s.53,1.11,1.14,1.11Z"/><path class="cls-1" d="M9.92,45h59.27c.61,0,1.14-.51,1.14-1.11s-.61-1.03-1.14-1.03H9.92c-.61,0-1.14.51-1.14,1.11s.53,1.03,1.14,1.03Z"/><path class="cls-1" d="M9.92,51.43h46.1c.61,0,1.14-.51,1.14-1.11s-.53-1.11-1.14-1.11H9.92c-.61,0-1.14.51-1.14,1.11s.53,1.11,1.14,1.11Z"/><path class="cls-1" d="M57.08,25.71c2.02,0,3.86-.69,5.36-1.8l5.88,5.74c.18.17.53.34.79.34s.53-.09.79-.34c.44-.43.44-1.11,0-1.54l-5.88-5.74c1.14-1.46,1.84-3.26,1.84-5.23,0-4.71-3.95-8.57-8.78-8.57s-8.78,3.86-8.78,8.57,3.95,8.57,8.78,8.57ZM57.08,10.71c3.6,0,6.59,2.91,6.59,6.43s-2.99,6.43-6.59,6.43-6.59-2.91-6.59-6.43,2.99-6.43,6.59-6.43Z"/><ellipse class="cls-1" cx="42.81" cy="30.01" rx="1.14" ry="1.11"/><path class="cls-1" d="M42.81,27.18c.61,0,1.14-.51,1.14-1.11V10.04c0-.6-.53-1.11-1.14-1.11s-1.14.51-1.14,1.11v16.03c.09.6.53,1.11,1.14,1.11Z"/><path class="cls-1" d="M18.92,16.11c-.93,0-1.68.7-1.68,1.57s.75,1.57,1.68,1.57c.93,0,1.68-.7,1.68-1.57,0-.87-.75-1.57-1.68-1.57ZM18.92,18.2c-.31,0-.56-.23-.56-.52s.25-.52.56-.52c.31,0,.56.23.56.52,0,.29-.25.52-.56.52ZM25.91,16.11c-.93,0-1.68.7-1.68,1.57s.75,1.57,1.68,1.57c.93,0,1.68-.7,1.68-1.57,0-.87-.75-1.57-1.68-1.57ZM25.91,18.2c-.31,0-.56-.23-.56-.52s.25-.52.56-.52c.31,0,.56.23.56.52,0,.29-.25.52-.56.52ZM37.9,18.06c-.61-2.88-2.74-5.98-4.74-6.91-1.59-.73-3.7-.74-4.98-.65-.14-.14-.28-.27-.43-.4-1.38-1.19-3.49-1.22-4.88-1.25h-.47s-.42,0-.42,0c-1.4.03-3.52.07-4.9,1.26-.15.13-.29.26-.42.39-1.28-.09-3.4-.09-4.99.65-2.01.93-4.14,4.03-4.74,6.91-.39,1.86-.11,3.36.83,4.35.67.71,1.93,1.07,3.73,1.07.15,0,.32-.01.48-.02.09,1.6.83,3.11,2.07,4.22,1.89,1.69,5.09,2.03,7.31,2.03.35,0,.67,0,.97-.02h.11s.1,0,.1,0c2.15.09,6.08-.05,8.27-2.01,1.24-1.11,1.98-2.61,2.07-4.21.16,0,.33.02.48.02,1.81,0,3.06-.36,3.73-1.07.93-.99,1.22-2.49.83-4.35ZM11.95,21.85c-.01.19-.02.38-.02.58-1.65.05-2.86-.2-3.34-.7-.88-.93-.79-2.39-.57-3.46.54-2.56,2.44-5.38,4.14-6.17,1.15-.44,2.39-.64,3.64-.58-.85,1.36-1.55,2.81-2.07,4.31l-.08.21c-1.07,2.7-1.6,4.05-1.7,5.81ZM22.42,22.69h0s0,0,0,0c-.28-.06-.54-.21-.72-.42-.18-.2-.32-.44-.4-.69.34-.18.74-.26,1.13-.23.39-.03.78.05,1.13.24-.08.25-.21.49-.4.69-.19.21-.44.36-.72.42ZM30.01,26.92c-1.32,1.18-3.88,1.8-7.04,1.73v-5.03c.4-.14.75-.37,1.02-.67.39-.43.64-.96.72-1.52.02-.16-.05-.32-.17-.43-.58-.49-1.35-.74-2.13-.69-.78-.05-1.55.2-2.13.69-.13.11-.19.27-.17.43.08.56.33,1.1.72,1.53.27.3.63.53,1.02.67v5.03c-3.16.08-5.72-.54-7.04-1.72-1.69-1.51-1.84-3.31-1.74-5.03.09-1.6.6-2.9,1.63-5.5l.08-.21c1.31-3.3,1.88-4.29,3.06-5.31,1.07-.92,2.86-.95,4.16-.98h.39s.45,0,.45,0c1.3.02,3.08.05,4.14.97,1.18,1.02,1.75,2.01,3.06,5.31l.08.2c1.03,2.6,1.55,3.91,1.63,5.5.09,1.72-.05,3.52-1.74,5.03ZM36.23,21.72h0c-.48.51-1.68.76-3.34.7,0-.2,0-.39-.02-.59-.1-1.76-.63-3.11-1.7-5.81l-.08-.2c-.52-1.5-1.21-2.94-2.06-4.31,1.24-.06,2.48.13,3.63.58,1.7.79,3.6,3.61,4.14,6.17.22,1.06.31,2.53-.57,3.46Z"/></svg>