<?xml version="1.0" encoding="UTF-8"?>
<svg id="Layer_1" data-name="Layer 1" xmlns="http://www.w3.org/2000/svg" viewBox="0 0 77.51 72.94">
  <defs>
    <style>
      .cls-1 {
        opacity: .55;
      }

      .cls-1, .cls-2 {
        isolation: isolate;
      }

      .cls-1, .cls-2, .cls-3 {
        fill: #22c55e;
        stroke-width: 0px;
      }

      .cls-2 {
        opacity: .49;
      }
    </style>
  </defs>
  <g>
    <path class="cls-2" d="M1.67,36.5h0c.92,0,1.66-.81,1.66-1.81v-5.82c0-1.01-.74-1.81-1.66-1.81s-1.67.82-1.67,1.81v5.82c0,1.01.74,1.81,1.66,1.81h0Z"/>
    <path class="cls-3" d="M29.43,9.55c-1.56,2.62-2.84,5.83-3.4,8.93-.69,3.78-.25,6.86,1.27,8.9,1.1,1.47,3.16,2.23,6.15,2.27.25,0,.53-.02.8-.03.11,3.27,1.3,6.37,3.33,8.66,3.09,3.5,8.37,4.24,12.04,4.29.57,0,1.11,0,1.6-.02h.35c2.41.15,6.19.1,9.52-1.18v3.93c0,3.05-1.15,5.83-2.99,7.85-1.85,2.01-4.4,3.26-7.2,3.26h-31.8c-.4,0-.77.16-1.06.42l-14.7,10.89v-27.21c0-1.01-.74-1.81-1.66-1.81S0,39.51,0,40.51v30.62c0,.35.1.7.29,1.02.52.82,1.55,1.04,2.3.48l17-12.6h31.3c3.72,0,7.11-1.66,9.55-4.32,2.45-2.67,3.97-6.36,3.97-10.41v-5.85c.3-.25.6-.52.87-.82,2.08-2.23,3.33-5.29,3.52-8.56.27,0,.54.04.79.05,2.99.04,5.07-.67,6.2-2.1,1.56-2,2.07-5.07,1.46-8.86-.95-5.89-4.4-12.26-7.7-14.19-2.61-1.53-6.1-1.58-8.23-1.43-.22-.28-.46-.55-.71-.82C58.4.23,54.91.11,52.59.03l-.77-.03h-.69c-2.32.04-5.82.07-8.13,2.47-.25.26-.48.53-.71.79-2.12-.21-5.62-.24-8.27,1.22-.61.34-1.23.83-1.84,1.43H13.53c-3.67,0-7.01,1.62-9.45,4.22l-.1.1C1.53,12.91.01,16.6.01,20.65v2.39c0,1.01.74,1.81,1.66,1.81s1.66-.81,1.66-1.81v-2.39c0-3.05,1.15-5.84,3-7.85l.08-.09c1.84-1.96,4.36-3.17,7.12-3.17h15.89M34.22,27.5c-2.73.07-4.73-.46-5.51-1.5h0c-1.43-1.92-1.26-4.91-.86-7.08.95-5.21,4.15-10.94,6.98-12.51,1.91-.88,3.97-1.25,6.03-1.1-1.45,2.76-2.63,5.7-3.52,8.76l-.14.44c-1.82,5.48-2.73,8.23-2.93,11.82-.02.39-.03.78-.05,1.18h0ZM51.56,28.25h-.02c-.47-.14-.88-.44-1.19-.87-.3-.42-.52-.91-.64-1.42.57-.36,1.22-.52,1.87-.45.65-.05,1.3.13,1.86.51-.13.52-.37.99-.67,1.4-.32.43-.73.72-1.21.84h0ZM64.03,37.04h0c-2.22,2.4-6.47,3.61-11.69,3.39l.11-10.26c.66-.28,1.25-.74,1.7-1.35.66-.88,1.08-1.95,1.23-3.1.03-.33-.07-.66-.27-.89-.95-1.02-2.22-1.54-3.51-1.46-1.3-.12-2.58.37-3.55,1.37-.21.23-.32.55-.29.88.12,1.15.52,2.24,1.16,3.14.45.63,1.02,1.11,1.68,1.4l-.11,10.26c-5.24.09-9.45-1.22-11.6-3.66-2.76-3.12-2.97-6.8-2.78-10.31.17-3.26,1.06-5.91,2.82-11.18l.14-.44c2.23-6.71,3.2-8.72,5.17-10.78,1.79-1.86,4.75-1.89,6.9-1.91h.65l.74.02c2.15.07,5.09.17,6.83,2.07,1.93,2.1,2.85,4.14,4.95,10.9l.12.42c1.65,5.33,2.47,8,2.58,11.27.12,3.52-.17,7.19-2.99,10.23h0ZM74.45,26.57h-.02c-.8,1.02-2.8,1.5-5.54,1.37,0-.41,0-.81-.02-1.2-.12-3.59-.98-6.37-2.68-11.9l-.12-.42c-.83-3.07-1.94-6.04-3.32-8.83,2.05-.1,4.1.33,5.99,1.25,2.8,1.64,5.88,7.45,6.72,12.68.35,2.18.46,5.17-1.01,7.04h0Z"/>
    <path class="cls-3" d="M57.47,14.9c-1.54-.02-2.8,1.4-2.82,3.17s1.21,3.22,2.75,3.24,2.8-1.4,2.82-3.17-1.21-3.22-2.75-3.24ZM57.42,19.17c-.51,0-.92-.48-.91-1.08,0-.6.42-1.06.94-1.06s.91.49.91,1.08-.43,1.07-.94,1.06Z"/>
    <path class="cls-3" d="M45.9,14.75c-1.54-.02-2.8,1.4-2.82,3.17s1.21,3.22,2.75,3.24,2.8-1.4,2.82-3.17-1.21-3.22-2.75-3.24ZM45.86,19.02c-.51,0-.92-.48-.91-1.08,0-.6.42-1.06.94-1.06s.91.49.91,1.08-.43,1.07-.94,1.06Z"/>
  </g>
  <path class="cls-1" d="M16.33,48.25h19.63c.62,0,1.13.51,1.13,1.13h0c0,.62-.51,1.13-1.13,1.13h-19.63c-.62,0-1.13-.51-1.13-1.13h0c0-.62.51-1.13,1.13-1.13Z"/>
  <path class="cls-2" d="M10.33,43.55h31.63c.62,0,1.13.51,1.13,1.13h0c0,.62-.51,1.13-1.13,1.13H10.33c-.62,0-1.13-.51-1.13-1.13h0c0-.62.51-1.13,1.13-1.13Z"/>
</svg>