<?xml version="1.0" encoding="UTF-8"?>
<svg id="Layer_1" data-name="Layer 1" xmlns="http://www.w3.org/2000/svg" viewBox="0 0 77.57 79.48">
  <defs>
    <style>
      .cls-1 {
        opacity: .46;
      }

      .cls-1, .cls-2 {
        fill: #0369a1;
        stroke: #0369a1;
        stroke-miterlimit: 10;
        stroke-width: .5px;
      }
    </style>
  </defs>
  <path class="cls-2" d="M41.45,30.47c-.78,0-1.42,1.03-1.42,2.31s.63,2.31,1.42,2.31,1.42-1.03,1.42-2.31-.63-2.31-1.42-2.31Z"/>
  <g>
    <path class="cls-2" d="M51.39,40.8c.28.06.57.1.87.1.81,0,1.57-.24,2.22-.65.03-.01.05-.03.08-.05.74-.49,1.32-1.21,1.63-2.07.13-.36-.06-.75-.41-.88-.36-.13-.75.06-.87.41-.4,1.12-1.46,1.87-2.65,1.87s-2.25-.75-2.65-1.87c-.13-.36-.52-.54-.87-.41-.35.13-.54.52-.41.88.47,1.31,1.55,2.27,2.84,2.62.07.03.14.04.22.05h0Z"/>
    <path class="cls-2" d="M70.73,40.99c.16-.44.28-.91.37-1.42,3.62-.98,5.55-3.19,5.3-6.12-.06-.73-.24-1.36-.53-1.88,3.95-9.9-1.39-16.47-2.55-17.73-.08-3.86-1.69-6.94-4.47-8.46-2.3-1.27-5.03-1.23-7.41.07C56.9.22,51.07,0,47.94.36c-4.52.51-8.9,2.79-10.41,5.37-3,.66-5.06,1.99-6.13,3.94-1.24,2.25-.81,4.69-.32,6.18-5.98,4.91-4.22,12.01-2.49,16.06-.25.49-.41,1.08-.46,1.76-.25,2.87,1.62,5.07,5.13,6.08.09.43.2.85.34,1.23,1.55,4.17,5.79,6.59,12.89,7.33l-.74,2.01-5.62,1.08c-4.45.85-7.98,4.43-8.78,8.91l-3.24,18.07c-.04.2.02.4.15.56.13.15.32.25.53.25h46.95c.2,0,.39-.09.53-.25.13-.16.18-.36.15-.56l-3.24-18.07c-.8-4.48-4.33-8.06-8.78-8.91l-5.6-1.07-.75-2.04c6.99-.77,11.17-3.18,12.7-7.32h0ZM71.27,38.09l.43-6.57c1.04-.26,2.26-.32,2.88.52.26.36.43.88.48,1.52.22,2.67-1.98,3.94-3.79,4.53h0ZM32.3,16.64c.24-.18.33-.5.23-.79-.45-1.19-1.04-3.49.08-5.52.91-1.65,2.77-2.77,5.52-3.33.21-.04.38-.18.47-.37.99-2,4.82-4.39,9.51-4.92,2.94-.33,8.49-.12,12.69,5.05.22.27.6.33.89.14,2.07-1.32,4.51-1.44,6.53-.33,2.39,1.31,3.76,4.06,3.76,7.54,0,.19.08.37.21.5.26.25,6.23,6.11,2.66,15.85-.78-.48-1.82-.6-3.06-.37l.14-2.17c.02-.25-.1-.48-.3-.62s-.46-.15-.68-.04c-3.03,1.52-7.88,1.33-10.92-2.02-.23-.25-.6-.29-.88-.11-2.46,1.65-5.31,1.61-8.46-.13-.22-.12-.49-.11-.71.03-3.18,2.12-6.05,2.32-9.61.68-.18-.08-.38-.09-.55,0-.18.08-.31.22-.38.41-.41,1.18-3.14,2.86-5.99,2.14-.21-.05-.43,0-.6.13-.17.14-.26.35-.25.56l.07,1.37c-1.44-.26-2.42,0-3.08.44-1.51-3.83-2.71-10,2.71-14.12h0ZM29.49,33.79c.05-.61.19-1.1.43-1.45.59-.87,1.78-.85,2.82-.61l.34,6.54c-1.74-.61-3.82-1.88-3.6-4.48h0ZM34.88,40.51c-.23-.62-.37-1.33-.42-2.15l-.45-8.61c2.77.33,5.37-1.05,6.38-2.52,3.61,1.5,6.73,1.24,10-.82,3.25,1.68,6.36,1.74,9.03.18,3.16,3.1,7.76,3.52,11.08,2.36l-.62,9.4c-.05.83-.19,1.54-.43,2.16-1.67,4.5-7.17,6.7-16.81,6.7-.16,0-.32,0-.48,0-.16,0-.32,0-.48,0-9.63,0-15.13-2.19-16.8-6.7h0ZM43.93,60.33c1.27,0,2.31,1.04,2.31,2.32s-1.04,2.32-2.31,2.32-2.31-1.04-2.31-2.32,1.04-2.32,2.31-2.32ZM40.11,77.82v-9c0-.38-.3-.68-.68-.68s-.68.3-.68.68v9h-9.15l3.1-17.27c.7-3.92,3.79-7.06,7.69-7.8l2.87-.55v6.82c-1.7.32-2.99,1.82-2.99,3.62,0,2.03,1.65,3.69,3.67,3.69s3.67-1.65,3.67-3.69c0-1.8-1.29-3.3-3-3.62v-7.08l1.18-.23c.44,1.11,1.27,2,2.53,2.68.08.04.17.08.26.12v23.3h-8.47ZM54.61,55.04l.25,22.78h-4.91v-22.77c.76.22,1.54.34,2.32.34s1.58-.12,2.34-.35h0ZM71.82,60.55l3.1,17.27h-9.15v-9c0-.38-.3-.68-.68-.68s-.68.3-.68.68v9h-8.18l-.25-23.31c.08-.04.15-.07.23-.11,1.26-.69,2.09-1.57,2.53-2.68l3.08.59v2.64c-2.67.34-4.75,2.66-4.75,5.46,0,.38.3.68.68.68h1.34c.38,0,.68-.3.68-.68s-.3-.68-.68-.68h-.6c.32-1.96,1.99-3.46,4-3.46s3.68,1.5,4,3.46h-.6c-.38,0-.68.3-.68.68s.3.68.68.68h1.34c.38,0,.68-.3.68-.68,0-2.8-2.07-5.12-4.75-5.46v-2.38l.95.18c3.9.74,6.99,3.88,7.69,7.8h0ZM57.56,50.96c-.28.93-.92,1.65-1.99,2.23-.18.09-.36.18-.55.26h0c-1.74.76-3.74.76-5.49,0-.18-.07-.36-.15-.54-.25-1.08-.59-1.73-1.3-2.01-2.24l.92-2.51c1.19.09,2.45.13,3.78.13.16,0,.32,0,.48,0,.16,0,.32,0,.48,0,1.41,0,2.73-.05,3.98-.15l.93,2.53h0Z"/>
    <path class="cls-2" d="M62.02,35.05c.78,0,1.42-1.03,1.42-2.31s-.63-2.31-1.42-2.31-1.42,1.03-1.42,2.31.63,2.31,1.42,2.31Z"/>
  </g>
  <g>
    <path class="cls-1" d="M28.41,57.02c.14-.24.27-.47.38-.58l.48-.47c1.5,0,2.66-1.53,2.66-2.84s-1.19-2.45-2.66-2.46c-.8-.51-2.05-1.65-2.46-4.07-.7-4.22-2.18-8.74-10.91-9.1-2.93-.12-5.29.34-7.05,1.34-2.74.14-4.88,2.16-4.94,4.75l-.13,5.54c-.09.76.02,1.89.62,2.91-.32,1.57-.77,3.06-1.25,4.63-1.37,4.54-3.09,10.19-2.91,21.88,0,.37.31.67.68.67h22.02c.35,0,.64-.26.68-.61.04-.4,1.01-9.52-4-18.03,6.07.22,7.71-1.72,8.77-3.56h0ZM30.57,53.12c0,.64-.63,1.47-1.31,1.47s-1.31-.83-1.31-1.47c0-.6.59-1.09,1.31-1.09s1.31.49,1.31,1.09ZM5.15,49.27s0-.05,0-.07l.13-5.57c.05-1.96,1.7-3.42,3.84-3.42h.17c1.97.03,3.71.97,4.65,2.5.77,1.26.88,2.75.3,3.98l-1.87,3.91c-.05.12-1.22,2.85-4.43,2.25-1.14-.22-1.83-.72-2.24-1.28,0,0-.01-.01-.02-.02-.67-.95-.57-2.06-.55-2.25h0ZM18.81,59.16c-.14-.12-.32-.19-.52-.17-.65.07-1.15-.06-1.51-.4-.68-.63-.79-1.9-.78-2.34.01-.38-.28-.7-.65-.71-.38-.04-.69.28-.71.66,0,.09-.07,2.19,1.21,3.39.55.51,1.24.77,2.06.78,4.62,7.14,4.56,15.23,4.43,17.48H1.62c-.1-11.01,1.54-16.41,2.86-20.78.39-1.28.75-2.5,1.06-3.79.55.41,1.26.73,2.16.9.4.08.78.11,1.15.11,2.75,0,4.32-1.99,4.78-3.15l1.85-3.87c.79-1.66.65-3.64-.37-5.29-.8-1.3-2.05-2.25-3.53-2.75,1.21-.3,2.64-.43,4.27-.36,7.71.32,8.95,3.94,9.62,7.95.36,2.17,1.32,3.52,2.2,4.33-.65.45-1.09,1.16-1.09,1.97,0,.85.49,1.78,1.25,2.34-.24.24-.42.54-.6.87-.7,1.22-1.88,3.24-8.42,2.83h0Z"/>
    <path class="cls-1" d="M22.91,48.6c0,2.6-2.64,2.6-2.64,0s2.64-2.59,2.64,0"/>
  </g>
</svg>