<?xml version="1.0" encoding="UTF-8"?>
<svg id="Layer_1" data-name="Layer 1" xmlns="http://www.w3.org/2000/svg" viewBox="0 0 74.93 75.19">
  <defs>
    <style>
      .cls-1 {
        fill-rule: evenodd;
      }

      .cls-1, .cls-2, .cls-3 {
        fill: #f97316;
        stroke-width: 0px;
      }

      .cls-3 {
        opacity: .62;
      }
    </style>
  </defs>
  <path class="cls-2" d="M50.85,3.76c0-2.07-1.71-3.76-3.81-3.76H3.81C1.71,0,0,1.69,0,3.76v67.65c0,2.07,1.71,3.76,3.81,3.76h7.79c-.05-.86.09-1.72.43-2.51H3.81c-.7,0-1.27-.56-1.27-1.25V3.76c0-.69.57-1.25,1.27-1.25h43.22c.7,0,1.27.56,1.27,1.25.04,12.78.08,25.57.12,38.35l2.44,2.91c0-13.75,0-27.51-.01-41.26Z"/>
  <rect class="cls-3" x="6.31" y="8.09" width="39.25" height=".66"/>
  <rect class="cls-3" x="6.31" y="11.31" width="36.5" height=".66"/>
  <rect class="cls-3" x="6.31" y="14.94" width="35.55" height=".66"/>
  <path class="cls-1" d="M28.05,28.55c.87,0,1.57.63,1.57,1.4s-.7,1.4-1.57,1.4-1.57-.63-1.57-1.4.7-1.4,1.57-1.4Z"/>
  <path class="cls-1" d="M15.48,46.88c.62,0,1.12.45,1.12,1.01s-.5,1.01-1.12,1.01-1.12-.45-1.12-1.01.5-1.01,1.12-1.01Z"/>
  <path class="cls-1" d="M19.65,41.08c2.54,2.21,3.96,5.9,3.45,7.86-.28,1-.39,2.07-.12,3.08.26,1.01.99,1.99,2.24,2.42,3.08,1.08,5.74,2.35,7.67,4.09.02.63-.03,1.28-.21,1.97l-2.3,8.52c-1.16.39-2.24.87-2.9,1.7-.64.79-.99,1.76-1.11,2.83h-6.08c0-.89.73-1.68,1.57-1.74l1.31.66c1.1.55,1.93-.96.8-1.44-2.89-1.24-3.98-3.53-3.63-5.4.34-1.87,2.01-3.47,5.52-3.47,1.22.02,1.22-1.63,0-1.61-4.17,0-6.82,2.2-7.3,4.82-.32,1.75.3,3.65,1.78,5.17-1.29.54-2.23,1.68-2.5,3.02h-5.17c.33-.77.57-1.69,1.42-1.75.36-.03.66-.24.78-.54,1.7-4.45,1.1-6.46.63-8.12s-.86-3.04,1.11-7.51c0,0,0,0,.01-.03.28-.72.22-1.57-.32-2.18-.53-.61-1.38-.94-2.44-1.12-1.26-.21-1.71-.43-1.94-.68-.23-.24-.38-.74-.67-1.66-.23-.77.06-.98.58-1.28,1.06-.6,1.72-1.52,2.11-2.37.39-.88,1.53-1.71,2.68-1.99.48-.11.77-.56.64-.99-.19-.62,0-1,.14-1.26l.99.88c.64.84,1.8.23,1.27-.67-.38-.49-.3-.97-.02-1.22h.01ZM31.68,25.73c1.69.01,3.3.42,4.39,1.14.97.65,1.76,2.19,2.94,3.59l2.9,3.43c1.06,1.25,1.29,2.3,1.15,3.16s-.69,1.58-1.4,2.07c-.71.49-1.57.73-2.17.68-.6-.05-.93-.21-1.11-.86l-2.17-7.75c-.29-1.04-2.04-.66-1.75.39l2.17,7.74c.34,1.23,1.51,1.99,2.7,2.08,1.19.09,2.41-.3,3.44-1.02.38-.26.73-.58,1.03-.93.81.32,1.43.82,2.08,1.51l14.95,15.92c3.26,3.47,3.02,9.03,1.8,13.11-.16.54.32,1.06.94,1.01,2.74-.21,5.12-1.7,7.05-4.76.18-.29.39-.39.69-.43.29-.04.68.02,1.01.19.68.34,1.16.94.72,1.94-.63,1.44-2.6,3.08-4.96,4.05s-5.06,1.28-7.09.5c-.3-.11-.63-.08-.89.1-.89.6-2.12.96-3.51.96h-16.23c.46-1.72,1.96-3.2,3.84-3.41.58.41,1.23.79,1.95,1.11,1.08.48,1.88-.97.8-1.45-3.46-1.54-4.8-4.3-4.39-6.62.05-.28.13-.55.22-.81.71-1.94,2.77-3.45,6.46-3.45,1.26.05,1.26-1.66,0-1.61-4.43,0-7.34,2.12-8.25,4.8l-5.45,9.12c-.41.69-.73,1.34-1.08,1.74-.35.4-.6.57-1.26.57h-4.84c.12-.7.2-1.43.58-1.89.53-.66,1.31-1.14,2.48-1.43.32-.07.57-.3.65-.59l2.37-8.78c.27-1.02.28-2.03.19-2.96-.2-2.12-1.17-4-2.09-5.89-1.32-2.71-2.58-5.47-1.93-9.49.37-2.3-1.55-4.52-4.17-4.96l-7.34-1.41c-.78-.15-1.04-.8-1.14-1.35-.13-.73.12-1.56.82-2.09.1-.08.52-.29,1.03-.49.5-.2,1.12-.42,1.73-.65.61-.23,1.23-.45,1.74-.76.67-.4,1.14-.69,1.33-1.24.44-1.28,1.33-2.23,2.61-2.89s2.89-.99,4.46-.97v.03ZM31.69,24.11c-1.86-.01-3.77.37-5.38,1.19-1.41.72-2.6,1.8-3.21,3.23-.2.47-.38.68-.75.91-.38.23-.95.44-1.54.66-.58.22-1.2.44-1.75.67-.56.22-1.04.42-1.45.73-1.24.93-1.66,2.33-1.45,3.56s1.08,2.42,2.55,2.69l7.38,1.41c1.67.32,2.95,1.82,2.73,3.15-.72,4.42.72,7.63,2.06,10.37.57,1.18,1.11,2.26,1.48,3.34-1.89-1.26-4.11-2.23-6.5-3.06-.66-.23-1.01-.63-1.13-1.29-.16-.83-.06-1.66.12-2.35.77-2.93-.99-6.9-4.04-9.5-.41-.35-1.03-.48-1.52-.36-.79.21-1.06.58-1.18,1.15-.18-.28-.6-.44-.94-.39-.53.08-.91.36-1.19.7-.45.54-.46,1.41-.37,2.28-1.4.5-2.77,1.27-3.35,2.54-.28.62-.78,1.27-1.36,1.58-.5.26-1.02.57-1.33,1.12s-.33,1.21-.09,1.94c.29.87.52,1.76,1.04,2.32.63.65,1.57.98,2.98,1.22.81.14,1.21.37,1.35.53s.18.28.04.65c-2.03,4.63-1.66,6.75-1.17,8.46.48,1.68.95,3-.55,7.03-1.76.53-2.98,1.99-2.98,3.79,0,.44.4.81.9.81h22.09c1.19,0,2.12-.55,2.68-1.2.56-.65.89-1.37,1.24-1.97l3.77-6.32c.3,1.1.89,2.16,1.76,3.12-2.56.79-4.5,3-4.5,5.56,0,.45.4.81.9.81h17.5c1.55,0,2.91-.48,4.08-1.14,2.61.85,5.6.49,8.17-.57,2.69-1.1,4.99-2.86,5.89-4.92.74-1.68-.18-3.26-1.51-3.94-.66-.34-1.43-.49-2.2-.38s-1.52.54-1.96,1.24c-1.43,2.26-2.89,3.16-4.52,3.57,1.01-4.23,1.19-9.45-2.32-13.19l-14.95-15.92c-.71-.76-1.54-1.45-2.62-1.9.08-.24.16-.49.2-.74.22-1.32-.22-2.84-1.5-4.36-.96-1.14-1.93-2.29-2.89-3.43-.99-1.17-1.72-2.86-3.29-3.9-1.5-.99-3.46-1.46-5.45-1.47l.03-.03Z"/>
</svg>