<?xml version="1.0" encoding="UTF-8"?>
<svg id="Layer_1" data-name="Layer 1" xmlns="http://www.w3.org/2000/svg" viewBox="0 0 78.49 63.53">
  <defs>
    <style>
      .cls-1 {
        opacity: .29;
      }

      .cls-1, .cls-2 {
        fill: #eab308;
        stroke-width: 0px;
      }
    </style>
  </defs>
  <path class="cls-2" d="M54.9,61.81c0-.99-.75-1.72-1.74-1.72H8.94c-2.98,0-5.46-2.46-5.46-5.41V8.85c0-2.95,2.48-5.4,5.46-5.4h60.62c2.98,0,5.46,2.46,5.46,5.4v15.12c0,.99.75,1.72,1.74,1.72s1.74-.74,1.74-1.72v-15.12c0-4.91-3.97-8.85-8.94-8.85H8.94C3.98,0,0,3.93,0,8.85v45.84c0,4.91,3.98,8.85,8.94,8.85h44.1c1.12,0,1.87-.74,1.87-1.72h0Z"/>
  <path class="cls-2" d="M47.49,26.9c.25,3.07,3.35,5.32,6.93,5.03s6.27-3.02,6.02-6.08c-.25-3.07-3.35-5.32-6.93-5.03-3.57.29-6.27,3.02-6.02,6.08Z"/>
  <path class="cls-2" d="M46.1,37.56c-.86,3.03,1.32,6.31,4.85,7.31,3.54,1.01,7.09-.64,7.95-3.67.86-3.03-1.32-6.31-4.85-7.31-3.54-1.01-7.09.64-7.95,3.67Z"/>
  <path class="cls-2" d="M47.27,50.47c1.51-2.2.65-5.42-1.91-7.2s-5.87-1.42-7.38.78-.65,5.42,1.91,7.2,5.87,1.42,7.38-.78Z"/>
  <path class="cls-2" d="M42.08,18.7c1.29,2.34,4.54,3.02,7.27,1.5,2.73-1.51,3.9-4.63,2.6-6.97-1.29-2.34-4.54-3.02-7.27-1.5s-3.9,4.63-2.6,6.97Z"/>
  <path class="cls-1" d="M42.5,37.62c3.87-2.64,3.77-7.4,3.77-7.4,0,0,0-4.76-3.95-7.32-3.93-2.55-10.53-6.64-10.53-6.64,0,0-8.65-1.47-7.07,7.52.38,2.2,1.42,4.37,1.45,6.69.03,2.32-.95,4.51-1.29,6.72-1.37,9.02,7.23,7.35,7.23,7.35,0,0,6.5-4.26,10.37-6.9h0Z"/>
</svg>