<?xml version="1.0" encoding="UTF-8"?>
<svg id="Layer_1" data-name="Layer 1" xmlns="http://www.w3.org/2000/svg" viewBox="0 0 78.19 75.74">
  <defs>
    <style>
      .cls-1 {
        fill: #9cf;
        fill-rule: evenodd;
      }

      .cls-1, .cls-2 {
        stroke-width: 0px;
      }

      .cls-2 {
        fill: #3b82f6;
      }
    </style>
  </defs>
  <path class="cls-2" d="M11.04,39.68h.78c3.59-.02,6.96-1.67,9.12-4.47,2.15,2.81,5.52,4.47,9.11,4.49,3.53,0,6.87-1.62,9.01-4.37,2.14,2.75,5.48,4.37,9.01,4.37,3.61.02,7.02-1.64,9.2-4.46,2.16,2.8,5.53,4.46,9.12,4.46h.78c3.47-.22,6.6-2.12,8.35-5.07,1.88-3.07,2.11-6.84.62-10.1l-9.47-20.74c-1.06-2.31-3.4-3.79-5.98-3.79H17.53c-2.58,0-4.92,1.49-5.98,3.79L2.05,24.51c-1.49,3.27-1.24,7.05.64,10.1,1.75,2.94,4.88,4.84,8.35,5.07ZM4.49,25.6L14.02,4.87c.62-1.35,2-2.23,3.51-2.23h43.13c1.51,0,2.89.88,3.51,2.23l9.5,20.73c1.13,2.48.96,5.33-.47,7.66-1.3,2.19-3.63,3.62-6.21,3.78h-.6c-3.38,0-6.46-1.94-7.9-4.93-.32-.66-1.13-.95-1.8-.63-.28.13-.5.35-.64.63-1.44,3-4.52,4.92-7.89,4.93-3.33.02-6.37-1.83-7.84-4.76-.33-.65-1.14-.93-1.81-.6-.27.13-.48.34-.61.6-1.45,2.94-4.51,4.81-7.84,4.8-3.39,0-6.46-1.93-7.9-4.93-.32-.66-1.13-.95-1.8-.63-.28.13-.5.35-.64.63-1.44,3.01-4.52,4.92-7.9,4.93h-.6c-2.58-.17-4.91-1.59-6.21-3.78-1.44-2.32-1.63-5.21-.5-7.69Z"/>
  <path class="cls-2" d="M41.81,73.09H5.32c-1.57-.09-2.77-1.41-2.68-2.93.08-1.41,1.23-2.55,2.68-2.63h3.36c.75,0,1.35-.59,1.35-1.33v-22.91c0-.73-.6-1.33-1.35-1.33s-1.35.59-1.35,1.33v21.59h-2.01c-3.06.12-5.43,2.65-5.32,5.65.12,2.83,2.43,5.1,5.32,5.22h36.49c.75,0,1.35-.59,1.35-1.33s-.6-1.33-1.35-1.33Z"/>
  <path class="cls-2" d="M43.73,64.88h-25.32v-22.23c0-.73-.6-1.33-1.35-1.33s-1.35.59-1.35,1.33v23.56c0,.73.6,1.33,1.35,1.33h26.73c-.26-.86-.29-1.79-.06-2.65Z"/>
  <g>
    <path class="cls-1" d="M42.97,48.61c-.58,0-1.13.27-1.56.76-.51.59-.87,1.53-.87,2.6s.36,2.02.87,2.6c.43.5.98.76,1.56.76s1.13-.27,1.56-.76c.51-.59.87-1.53.87-2.6s-.36-2.02-.87-2.6c-.43-.5-.98-.76-1.56-.76ZM42.97,50.04c.24,0,.42.19.59.44.24.38.39.91.39,1.5s-.14,1.11-.39,1.5c-.16.25-.34.44-.59.44s-.42-.19-.59-.44c-.24-.38-.39-.91-.39-1.5s.14-1.11.39-1.5c.16-.25.34-.44.59-.44Z"/>
    <path class="cls-1" d="M57.27,48.61c-.58,0-1.13.27-1.56.76-.51.59-.87,1.53-.87,2.6s.36,2.02.87,2.6c.43.5.98.76,1.56.76s1.13-.27,1.56-.76c.51-.59.87-1.53.87-2.6s-.36-2.02-.87-2.6c-.43-.5-.98-.76-1.56-.76ZM57.27,50.04c.24,0,.42.19.59.44.24.38.39.91.39,1.5s-.14,1.11-.39,1.5c-.16.25-.34.44-.59.44s-.42-.19-.59-.44c-.24-.38-.39-.91-.39-1.5s.14-1.11.39-1.5c.16-.25.34-.44.59-.44Z"/>
    <path class="cls-1" d="M36.95,52.03c-.94-.02-1.87.19-2.82.64-.36.17-.51.6-.33.95.18.35.61.5.97.33.63-.3,1.26-.46,1.88-.48-.04.45,0,.9.06,1.33-.83.23-1.6.65-2.33,1.26-.31.26-.33.71-.07,1,.26.3.72.33,1.03.07.56-.47,1.15-.8,1.79-.97.32.72.8,1.41,1.41,2.05,1.25,1.32,3.1,2.41,5.32,3.14-1.72,4.84-1.94,9.49,1.14,13.68h0c.32.43.85.68,1.4.65.55-.03,1.05-.34,1.31-.8.53-.93,1.24-2.17,1.51-2.63.34.03.69.03,1.04,0l1.27,2.25c.3.52.87.83,1.48.8s1.15-.38,1.4-.93l1.23-2.7c.35.25.72.44,1.11.57l1.06,2.32c.25.54.79.9,1.4.93.52.02,1.02-.2,1.33-.6l.03.04c.27.45.75.75,1.29.79s1.05-.19,1.39-.61c2.57-3.25,3.27-6.24,2.87-8.54l2.6-1.81c1.51-1.05,2.29-2.83,2.03-4.61l-.1-.7c-.12-.8.26-1.6.96-2.02h0c.86-.52,1.92-.57,2.82-.15s1.51,1.28,1.62,2.25c0,.03,0,.05,0,.07.32,1.45.66,3.11.66,3.11v-.04h0c-.03.39.27.72.68.76.41.03.75-.27.78-.65.02-.2-.3-1.72-.68-3.44-.17-1.44-1.09-2.71-2.43-3.34-1.35-.65-2.96-.56-4.24.22q-.85.52,0,0c-1.2.72-1.84,2.07-1.64,3.43.04.23.07.46.1.7.18,1.26-.37,2.52-1.43,3.25l-2.18,1.52c-.07-.17-.15-.34-.24-.5-1.06-1.94-3.11-2.57-5.15-2.95-.89-.17-1.78-.28-2.53-.49-.18-.05-.36-.1-.52-.16,1.86-.72,3.41-1.7,4.5-2.85.6-.63,1.07-1.3,1.39-2.01.61.18,1.19.5,1.73.95.31.26.77.22,1.03-.07.26-.3.23-.74-.07-1-.7-.59-1.46-1.01-2.27-1.25.07-.44.09-.89.05-1.35.61.03,1.23.19,1.85.48.36.17.8.03.97-.33.18-.35.03-.78-.33-.95-.94-.44-1.88-.65-2.82-.64-.32-.91-.57-1.82-.86-2.68v-.04h0c.52-2.18.71-3.92.56-5.17-.12-.99-.46-1.72-.96-2.19-.54-.51-1.27-.77-2.24-.68-1.11.1-2.58.67-4.43,1.81-1.64-.4-3.41-.62-5.26-.62s-3.64.22-5.28.63c-1.84-1.14-3.33-1.72-4.43-1.8-.96-.08-1.69.18-2.24.69-.5.48-.84,1.2-.96,2.2-.15,1.25.02,2.96.53,5.12-.23.81-.47,1.72-.78,2.75h.06ZM55.48,61.63c-1.65.44-3.46.7-5.37.7-1.71,0-3.34-.2-4.84-.56-1.59,4.4-1.87,8.64.92,12.46.03.04.08.06.13.06.05,0,.09-.03.12-.07h0c.41-.72.94-1.62,1.27-2.21h0c-.39-.11-.61-.5-.5-.88s.51-.59.9-.49c1.12.31,2.24.33,3.34,0,.39-.11.79.1.91.48.12.38-.11.77-.49.88-.03,0-.05.02-.08.02l1.03,1.82c.03.05.08.08.14.08s.11-.04.14-.09l1.64-3.58c.1-.21.3-.37.54-.41.23-.04.49.04.65.2.89.9,1.92,1.25,3.15.74.34-.14.73,0,.92.3l1.87,3.17s.07.07.12.07c.05,0,.1-.02.13-.06h0c2.36-3,3-5.69,2.55-7.7-.04-.07-.05-.15-.05-.23-.1-.37-.24-.71-.41-1.03-.49-.88-1.25-1.38-2.12-1.71-.98-.37-2.08-.53-3.1-.71-1.42-.25-2.7-.57-3.49-1.27h.02ZM59.73,73.49c-.36-.62-.7-1.2-.7-1.2-.2.05-.4.1-.59.12l.73,1.59c.03.05.07.09.14.09.05,0,.11-.03.14-.08l.3-.52h0ZM61.82,52.25c-.3-.9-.55-1.79-.84-2.64-.05-.12-.05-.26-.02-.39l.05-.23c.48-1.97.67-3.54.53-4.68-.07-.6-.23-1.06-.52-1.34-.34-.33-.87-.36-1.55-.21-.93.2-2.08.75-3.48,1.64-.42.27-.48.17-.48.17-.06,0-.13,0-.19-.03-1.6-.42-3.36-.65-5.2-.65s-3.6.23-5.22.66c-.05,0-.1.02-.14.03h-.05c-.17,0-.32-.05-.45-.15h-.02.02-.02c-1.41-.89-2.56-1.44-3.49-1.64-.68-.15-1.22-.11-1.57.22-.31.29-.46.75-.53,1.35-.14,1.14.05,2.71.52,4.69,0,.02,0,.04,0,.06l.03.15c0,.11,0,.21-.04.32-.23.8-.47,1.69-.77,2.69.38.11.75.24,1.13.42.36.17.51.59.34.95s-.61.5-.97.34c-.26-.12-.53-.22-.79-.3-.02.32,0,.63.06.94.47,0,.95.03,1.44.11.4.07.66.44.59.83-.07.39-.46.64-.85.57-.23-.04-.44-.07-.65-.08.24.43.55.85.93,1.24,2.09,2.19,5.99,3.64,10.5,3.64s8.48-1.48,10.58-3.67c.37-.38.68-.79.91-1.21-.23,0-.48.04-.72.09-.4.07-.78-.19-.85-.57-.07-.39.19-.76.59-.83.51-.1,1.02-.13,1.51-.11.05-.31.06-.63.04-.95-.28.08-.56.19-.83.31-.36.17-.8.02-.97-.34s-.02-.78.34-.95c.37-.18.75-.31,1.12-.42h-.04Z"/>
    <path class="cls-1" d="M47.35,57.9c-.32-.16-.59-.4-.8-.67-.35-.45-.58-.95-.58-1.46,0-.39.32-.71.73-.71s.73.32.73.71c0,.26.16.48.35.69.16.18.4.27.63.28.23,0,.47-.1.63-.28.17-.19.32-.39.35-.61v-.08c0-.39.32-.71.73-.71h0c.41,0,.73.32.73.71v.08c.03.22.18.42.35.61.16.18.4.27.63.28.23,0,.47-.1.63-.28.19-.21.35-.44.35-.69,0-.39.32-.71.73-.71s.73.32.73.71c0,.51-.22,1.02-.58,1.46-.21.28-.49.52-.81.68v.29c0,.39-.32.71-.73.71s-.73-.32-.73-.71v-.08c-.05,0-.1-.02-.15-.04-.45-.11-.86-.34-1.15-.67-.31.33-.7.57-1.15.67-.05,0-.11.03-.16.04v.07c0,.39-.32.71-.73.71s-.73-.32-.73-.71c0,0,0-.29,0-.29Z"/>
  </g>
</svg>