<?xml version="1.0" encoding="UTF-8"?><svg id="Layer_1" xmlns="http://www.w3.org/2000/svg" viewBox="0 0 82.53 71.79"><defs><style>.cls-1{fill:#fff;fill-rule:evenodd;stroke-width:0px;}</style></defs><path class="cls-1" d="M23.52,6.24c1.09,0,1.97.88,1.97,1.97s-.88,1.98-1.97,1.98-1.97-.89-1.97-1.98.89-1.97,1.97-1.97Z"/><path class="cls-1" d="M12.97,23.86c3.19,3.11,4.98,8.3,4.34,11.05-.35,1.4-.49,2.92-.16,4.33.33,1.42,1.25,2.79,2.81,3.4,3.87,1.52,7.22,3.3,9.64,5.75.03.88-.04,1.8-.26,2.77l-2.89,11.97c-1.46.55-2.82,1.23-3.65,2.39-.8,1.11-1.25,2.47-1.39,3.98h-7.64c0-1.26.91-2.36,1.98-2.44l1.65.92c1.38.77,2.43-1.35,1-2.03-3.64-1.75-5-4.96-4.57-7.6.43-2.64,2.53-4.88,6.94-4.88,1.54.03,1.54-2.29,0-2.26-5.24,0-8.58,3.09-9.18,6.78-.4,2.46.38,5.12,2.24,7.27-1.62.76-2.8,2.36-3.15,4.25h-6.5c.42-1.08.71-2.37,1.78-2.46.45-.04.83-.33.98-.76,2.14-6.25,1.39-9.08.79-11.42-.59-2.34-1.08-4.28,1.4-10.55,0-.01.01-.02.02-.04.35-1.02.28-2.2-.4-3.06-.67-.86-1.73-1.32-3.06-1.57-1.59-.3-2.15-.61-2.44-.95-.29-.34-.48-1.04-.84-2.34-.29-1.09.07-1.38.74-1.8,1.33-.85,2.17-2.14,2.65-3.33.49-1.24,1.92-2.4,3.38-2.79.6-.16.96-.78.8-1.38-.23-.88-.01-1.41.18-1.77l1.24,1.23c.8,1.18,2.27.32,1.59-.94-.47-.69-.38-1.36-.02-1.72ZM28.09,2.28c2.12.02,4.16.59,5.52,1.6,1.22.91,2.21,3.08,3.69,5.05l3.64,4.82c1.33,1.76,1.62,3.23,1.45,4.44-.18,1.21-.87,2.22-1.76,2.92-.89.69-1.97,1.03-2.73.96-.76-.07-1.17-.29-1.4-1.21l-2.72-10.89c-.36-1.47-2.57-.92-2.2.55l2.72,10.89c.43,1.73,1.9,2.79,3.4,2.93,1.49.13,3.03-.43,4.32-1.43.47-.37.92-.81,1.3-1.31,1.02.45,1.8,1.15,2.62,2.12l18.8,22.38c4.1,4.88,3.8,12.7,2.27,18.44-.2.76.4,1.49,1.19,1.43,3.44-.29,6.44-2.4,8.86-6.7.23-.4.5-.55.86-.61.36-.06.85.03,1.28.27.86.48,1.45,1.33.91,2.73-.8,2.03-3.26,4.33-6.24,5.69-2.97,1.36-6.36,1.8-8.92.71-.37-.16-.8-.11-1.12.14-1.11.84-2.67,1.36-4.42,1.36h-20.41c.58-2.42,2.46-4.5,4.83-4.8.73.58,1.54,1.1,2.45,1.56,1.35.67,2.36-1.36,1.01-2.03-4.35-2.17-6.04-6.05-5.51-9.3.07-.39.16-.78.28-1.14.89-2.73,3.48-4.85,8.13-4.85,1.58.07,1.58-2.34,0-2.27-5.57,0-9.23,2.98-10.37,6.75l-6.85,12.82c-.51.97-.92,1.89-1.35,2.45-.44.56-.76.81-1.58.81h-6.09c.15-.98.25-2,.72-2.66.67-.93,1.65-1.61,3.11-2,.41-.11.71-.43.81-.83l2.98-12.34c.34-1.44.35-2.85.24-4.17-.25-2.99-1.47-5.62-2.63-8.28-1.66-3.81-3.24-7.69-2.43-13.34.47-3.24-1.95-6.35-5.25-6.98l-9.23-1.98c-.98-.21-1.31-1.12-1.43-1.9-.16-1.03.16-2.19,1.04-2.93.13-.11.65-.41,1.29-.69.64-.29,1.41-.59,2.18-.92.77-.33,1.55-.64,2.19-1.06.84-.56,1.44-.97,1.68-1.74.55-1.8,1.67-3.14,3.28-4.06,1.61-.92,3.64-1.39,5.61-1.37ZM28.11,0c-2.34-.02-4.74.52-6.76,1.68-1.77,1.01-3.26,2.53-4.04,4.54-.26.66-.48.96-.94,1.28-.48.32-1.2.61-1.94.93-.74.31-1.5.62-2.2.94-.7.31-1.31.59-1.82,1.03-1.56,1.31-2.08,3.28-1.83,5,.26,1.72,1.36,3.4,3.2,3.78l9.28,1.98c2.09.44,3.7,2.56,3.43,4.43-.9,6.22.91,10.72,2.59,14.57.72,1.66,1.39,3.18,1.86,4.7-2.38-1.78-5.17-3.14-8.17-4.31-.83-.32-1.26-.88-1.42-1.81-.2-1.17-.07-2.33.16-3.3.97-4.12-1.24-9.71-5.08-13.35-.52-.5-1.3-.68-1.91-.5-.99.29-1.33.81-1.49,1.61-.23-.4-.76-.62-1.18-.55-.67.11-1.14.51-1.49.99-.57.76-.58,1.98-.46,3.2-1.77.7-3.49,1.78-4.21,3.57-.36.88-.98,1.79-1.71,2.22-.62.37-1.28.8-1.67,1.57-.38.78-.42,1.7-.11,2.72.37,1.23.66,2.47,1.31,3.26.79.92,1.97,1.38,3.75,1.71,1.02.19,1.52.53,1.7.74.17.22.22.4.05.91-2.56,6.51-2.08,9.49-1.47,11.9.6,2.37,1.2,4.21-.69,9.89-2.21.75-3.75,2.79-3.75,5.32,0,.62.5,1.14,1.13,1.14h27.78c1.49,0,2.67-.78,3.38-1.69.71-.91,1.12-1.93,1.56-2.77l4.74-8.88c.38,1.54,1.12,3.04,2.21,4.39-3.21,1.11-5.66,4.22-5.66,7.81,0,.63.51,1.14,1.13,1.14h22.01c1.95,0,3.66-.67,5.13-1.61,3.29,1.2,7.04.69,10.27-.8,3.39-1.55,6.27-4.03,7.4-6.92.93-2.36-.22-4.59-1.9-5.54-.83-.47-1.8-.69-2.76-.53-.96.16-1.92.76-2.47,1.74-1.79,3.18-3.63,4.44-5.68,5.02,1.27-5.94,1.5-13.29-2.92-18.55l-18.8-22.38c-.9-1.07-1.94-2.04-3.29-2.68.1-.33.2-.68.25-1.05.27-1.85-.27-3.99-1.88-6.13-1.21-1.6-2.43-3.21-3.64-4.82-1.24-1.64-2.16-4.02-4.14-5.49C33.09.67,30.61.02,28.11,0Z"/><path class="cls-1" d="M7.72,32.02c.78,0,1.41.63,1.41,1.42s-.63,1.42-1.41,1.42-1.41-.64-1.41-1.42c0-.79.63-1.42,1.41-1.42Z"/></svg>