<?xml version="1.0" encoding="UTF-8"?>
<svg xmlns="http://www.w3.org/2000/svg" xmlns:xlink="http://www.w3.org/1999/xlink" viewBox="0 0 1014.41 748.61">
  <defs>
    <style>
      .cls-1, .cls-2, .cls-3, .cls-4, .cls-5, .cls-6, .cls-7, .cls-8, .cls-9, .cls-10, .cls-11 {
        mix-blend-mode: multiply;
      }

      .cls-1, .cls-12, .cls-3, .cls-4, .cls-13, .cls-14, .cls-15, .cls-16, .cls-5, .cls-17, .cls-18, .cls-19, .cls-20, .cls-21, .cls-22, .cls-23, .cls-24, .cls-8, .cls-25, .cls-26, .cls-27, .cls-28, .cls-9, .cls-29, .cls-11 {
        stroke-width: 0px;
      }

      .cls-1, .cls-14, .cls-8, .cls-9 {
        fill: #8badf3;
      }

      .cls-2 {
        opacity: .7;
      }

      .cls-12 {
        fill: #78899d;
      }

      .cls-3 {
        opacity: .4;
      }

      .cls-3, .cls-20 {
        fill: #ee9a20;
      }

      .cls-30 {
        opacity: .6;
      }

      .cls-4, .cls-19 {
        fill: #f69bad;
      }

      .cls-31 {
        isolation: isolate;
      }

      .cls-13, .cls-17 {
        fill: #d58d32;
      }

      .cls-13, .cls-6, .cls-32, .cls-8 {
        opacity: .3;
      }

      .cls-15 {
        fill: none;
      }

      .cls-33 {
        clip-path: url(#clippath-1);
      }

      .cls-16 {
        fill: #7f3c00;
      }

      .cls-5, .cls-23 {
        fill: #ff6c90;
      }

      .cls-18, .cls-11 {
        fill: #ffb500;
      }

      .cls-7 {
        opacity: .5;
      }

      .cls-34 {
        clip-path: url(#clippath);
      }

      .cls-32 {
        mix-blend-mode: overlay;
      }

      .cls-21 {
        fill: #dee9ff;
      }

      .cls-22 {
        fill: #e8f0ff;
      }

      .cls-24 {
        fill: #fff5c7;
      }

      .cls-25 {
        fill: #fff;
      }

      .cls-26 {
        fill: #ffc77d;
      }

      .cls-27 {
        fill: #441000;
      }

      .cls-28 {
        fill: #ffbc6d;
        opacity: .21;
      }

      .cls-9 {
        opacity: .35;
      }

      .cls-29 {
        fill: #ff6700;
      }
    </style>
    <clipPath id="clippath">
      <path class="cls-15" d="M711.94,183.4c-2.89,16.63,30.23,17.64,30.23,17.64l-.67,25.9h-47.35l-6.69-18.45,24.47-25.1Z"/>
    </clipPath>
    <clipPath id="clippath-1">
      <path class="cls-15" d="M746.62,555c.78-1.1,1.96-2.34,3.24-1.92-.82,1.48-1.66,3.09-1.42,4.77.43,2.99,3.92,4.38,6.91,4.87,3.92.64,8.02.77,11.59,2.5,6.51,3.14,9.65,10.96,9.47,18.18-.06,2.53-.45,5.09.1,7.55.73,3.26,3.1,6.03,6.04,7.62,2.94,1.59,6.39,2.09,9.72,1.83l-3.63,6.94c-.37.44-.77.85-1.19,1.25.81.03,1.62.07,2.41.12-.8.05-1.75.44-2.69,1-3.63,2.15-5.89,6-6.26,10.2-.36,4.08.34,8.31-.31,12.64-1.2,22.82-25.1,10.19-25.19,28.92-8.96-15.93,9.3-20.79,3.84-29.38-1.55-1.33-3.47-2.55-2.87-4.89.9-7.56,4.92-12.24,10.33-15.03-1.9-.64-3.75-1.48-5.48-2.49-2.43-1.4-4.77-3.23-5.9-5.8-1.55-3.52-.49-7.58.37-11.33.87-3.75,1.43-8.04-.85-11.14-2.76-3.76-8.5-4.13-11.56-7.65-2.26-2.6-2.55-6.46-1.61-9.77.94-3.31,2.95-6.2,4.94-9Z"/>
    </clipPath>
  </defs>
  <g class="cls-31">
    <g id="OBJECTS">
      <g>
        <ellipse class="cls-28" cx="507.21" cy="703.35" rx="507.21" ry="45.26"/>
        <g>
          <g>
            <rect class="cls-16" x="722.22" y="212.93" width="27.64" height="449.64" transform="translate(1472.08 875.51) rotate(180)"/>
            <g>
              <g>
                <path class="cls-14" d="M757.67,202.54c9.64,19.26,19.43,38.75,33.57,55,5.11,5.88,11.33,11.58,19.06,12.59.53.07,1.13.09,1.51-.28.38-.37.37-.98.29-1.5-.36-2.52-1.64-4.8-2.94-6.99-12.75-21.45-30.07-40.29-39.79-63.27l-11.71,4.45Z"/>
                <path class="cls-18" d="M697.16,36.9c9.81,1.54,19.32,4.53,29.01,6.7,6.3,1.42,12.99,2.47,19.14.5-5.17,2.81-11.39,2.71-17.25,2.21-8.03-.69-16-1.99-23.83-3.89,11.38,6.11,24.28,9.37,37.2,9.43-11.36,1.67-23.08.86-34.11-2.34-8.06-2.34-15.74-5.94-23.92-7.79-8.18-1.85-18.92,2.91-25.91,7.53,5.4-3.55,5.71-10.43,17.52-12.35,7.34-1.19,14.85-1.15,22.17,0Z"/>
                <g>
                  <path class="cls-18" d="M683.86,79.86c3.14-1.46,5.9-3.66,8.26-6.18,4.27-4.56,7.3-10.31,8.4-16.46.36-2.01.48-4.06.41-6.1-1-3.01-2.62-5.91-5.42-8.59-4.18-3.99-9.83-6.1-15.61-6.13-7.77-.04-20.83,2.63-23.65,17.04-2.57,13.15,2.39,20.34,6.02,27.76,2.95,6.58,15.76,1.38,21.58-1.34Z"/>
                  <g>
                    <path class="cls-14" d="M863.12,238.16c-103.11-46.82-68.89-82.83-129.33-137.95-5.69-5.19-28.48-30.1-32.86-49.1.07,2.04-.05,4.09-.41,6.1-1.09,6.15-4.13,11.9-8.4,16.46-2.36,2.53-5.12,4.72-8.26,6.18-5.83,2.72-15.57,3.65-21.58,1.34.88,3.51.35,8.14-.56,10.37-21.88,54.07,56.83,124.91,106.25,113.96,0,0,37.78,43.47,65.23,54.14,5.52,2.58,7.71-2.51,3.24-6.14-17.2-16.32-34.4-32.65-51.61-48.97,9.62,9.62,64.22,44.25,78.41,36.41,1.13-.63,1.06-2.27-.11-2.81Z"/>
                    <path class="cls-9" d="M685,142.74c3.52,3.72,8.92,5.88,13.9,4.69,4.98-1.19,9.02-6.2,8.31-11.27,5.32,4,12.01,6.79,18.57,5.66,6.56-1.13,12.47-7.2,11.72-13.81,6.04,3.19,13.49,6.36,19.34,2.84.85-.51,1.59-1.13,2.24-1.83-6.17-9.07-14.1-18.61-25.28-28.8-1.18-1.08-3.11-3.02-5.45-5.57-.64,3.79-2.02,7.28-4.97,9.63-4.93,3.92-12.46,2.78-17.57-.91-.82-.59-1.89-1.26-2.74-.72-.46.3-.67.86-.88,1.37-1.85,4.43-6.88,7.12-11.67,6.77-4.79-.35-9.16-3.42-11.66-7.52-3.41,5.47-10,9.94-16.1,7.85-1.83-.63-3.4-1.8-4.69-3.25-.82,13.51,3.4,27.42,10.88,40.39,6.01,1.61,13.04-.15,16.04-5.51Z"/>
                    <path class="cls-9" d="M745.09,192.5c3.34,2.6,8.47,2.54,11.75-.12,3.28-2.67,4.38-7.68,2.52-11.47,7.06,4.94,16.12,7.85,24.4,5.47,1.99-.57,3.88-1.52,5.58-2.75-5.69-8.36-9.82-16.78-14.07-25.48-.87.88-1.85,1.64-2.94,2.22-5.04,2.71-11.82,1.69-15.83-2.39.72,6.26-5.71,11.57-12.01,11.79-6.3.22-12.13-3.21-17.14-7.03,1.85,4.74-.66,10.72-5.33,12.74-5.04,2.17-10.92-.15-15.33-3.41.14,3.81,0,8.24-3.05,10.53-.95.72-2.06,1.09-3.21,1.22,12.54,9.79,26.55,17.15,40.15,20.62,3.68-2.87,5.93-7.55,4.52-11.94Z"/>
                    <path class="cls-14" d="M785.66,205.34c-.28-.26-.55-.52-.83-.78.24.24.52.51.83.78Z"/>
                  </g>
                </g>
                <path class="cls-21" d="M792.04,177.62c.7,1.24,1.14,3.15-.12,3.82-.61.33-1.36.15-2.02-.05-5.16-1.6-9.88-4.59-13.52-8.58,2.05,3.44,4.18,7.14,4.01,11.15-.03.6-.14,1.26-.6,1.64-.58.47-1.42.3-2.14.09-10.12-2.92-19.34-8.85-26.2-16.84,3.34,2.59,6.07,5.97,7.91,9.77.42.87.8,1.79.76,2.75-.08,1.8-1.67,3.25-3.41,3.73-1.74.48-3.59.18-5.35-.2-22.22-4.73-40.49-21.24-52.48-40.54-9.84-15.84-17.99-37.87-11.02-53.18,3-6.6,20.23-19.82,42.67,1.35,0,0,29.83,29.27,61.51,85.09Z"/>
                <g>
                  <path class="cls-29" d="M659.01,78.33c1.45.35,3.17.31,4.22-.76.37-.38.62-.85.85-1.33.52-1.09.95-2.28.82-3.49-.1-.94-.54-1.82-1.11-2.58-1.97-2.66-5.73-3.94-8.83-2.76-2.06.79-4.47,3.64-3.12,5.92,1.43,2.41,4.5,4.36,7.17,5.01Z"/>
                  <path class="cls-29" d="M664.7,74.63c-.87,1.84-4.06.06-6.09.1-1.33.02-2.72.06-3.88.7-1.7.95-2.5,2.96-2.89,4.87-9.91-17.23.18-22.81,3.93-23.13,0,0,15.5,3.57,8.94,17.46Z"/>
                </g>
                <path class="cls-16" d="M651.84,80.29c0-4.66,4.13-6.91,8.4-6.08,2.71.37,5.54-.59,7.22-2.83.57-.72,1.1-1.54,1.12-2.5.12.96-.33,1.91-.85,2.7-1.6,2.55-4.58,4.06-7.61,3.73-3.95-.62-7.22.91-8.27,4.99h0Z"/>
                <path class="cls-12" d="M716.75,138.91c1.45,3.84,3.4,7.73,6.72,10.24,1.64,1.17,6.33,3.99,7.28,1.01.41-1.24-.15-3.1-.37-4.45l1.22,1.11c1.48,1.33,3.15,2.74,5.18,2.88,1.71.15,3.94-1.42,3.54-3.27l-.32-1.36c2.57,1.88,10,8.69,11.98,3.38.17-.59.06-1.29-.42-1.74,1.14.89.61,2.68-.37,3.51-3.13,2.32-8.02-1.82-10.69-3.52,0,0,.76-.49.76-.49.55,2.62-2.13,4.66-4.54,4.55-2.34-.12-4.28-1.6-5.88-3.12l.93-.5c1.37,7.32-4.94,5.94-8.82,2.67-3.32-2.76-5.14-6.82-6.2-10.89h0Z"/>
                <path class="cls-12" d="M714.95,122.31c1.4,3.96,3.21,8.38,7.24,10.22,3.89,1.73,3.14-.65,4.24-3.44,0,0,.35-.76.35-.76l.56.65c1.05,1.17,2.34,2.6,3.97,2.55,1.48-.05,2.64-1.65,2.81-3.21l.14-1.36.79,1.1c1.46,1.94,4.09,3.88,6.6,3.44,1.22-.27,1.83-1.71,1.64-3-.18-1.32-1.04-2.49-1.85-3.6.93,1,1.91,2.09,2.24,3.53.36,1.45-.27,3.27-1.84,3.72-3,.65-5.83-1.25-7.62-3.47,0,0,.93-.26.93-.26-.16,2.01-1.59,4.09-3.78,4.23-2.12.1-3.64-1.52-4.87-2.94l.92-.12c-.54,1.08-.47,2.72-1.37,3.8-1.12,1.3-2.99.62-4.26-.01-4.14-2.13-5.89-6.79-6.84-11.05h0Z"/>
                <path class="cls-12" d="M735.69,161.25c2.37,2.92,5.01,6.27,8.82,7.13,4.58,1.13,6.19-2.89,5.94-6.82,0,0-.04-1.37-.04-1.37l.95.99c2.24,2.33,4.85,4.3,7.66,5.87,1.22.7,2.86,1.09,3.52-.43.62-1.3-.08-2.82-.83-4.24l-.7-1.33,1.31.72c2.3,1.25,3.78,3.52,6.21,4.44,1.69.78,3.93.26,4.6-1.61.23-.57.23-1.25-.08-1.82.37.53.44,1.25.25,1.88-.59,2.1-3.08,2.83-4.96,2.1-2.5-.8-4.19-3.06-6.44-4.18,0,0,.61-.62.61-.62.41.71.83,1.47,1.08,2.33.63,1.76-.3,4.36-2.44,4.44-1.01.05-1.86-.33-2.63-.71-2.98-1.56-5.64-3.65-7.92-6.1l.91-.38c.26,4.47-1.91,9.07-7.16,7.58-4.01-1.06-6.49-4.61-8.65-7.85h0Z"/>
                <path class="cls-23" d="M674.33,61.37c-2.05,3.16-1.63,7.92,1.41,10.15,1.07.79,2.36,1.22,3.66,1.49,3.67.76,7.78.15,10.58-2.34,2.8-2.49,3.81-7.06,1.67-10.14-4.03-5.8-13.64-4.83-17.31.83Z"/>
                <g>
                  <path class="cls-27" d="M672.67,56.36c-.39,2.12-2.43,3.52-4.56,3.13-2.13-.39-3.54-2.42-3.15-4.54.39-2.12,2.43-3.52,4.56-3.13,2.13.39,3.54,2.42,3.15,4.54Z"/>
                  <g class="cls-7">
                    <path class="cls-27" d="M672.19,57.61c.22-.38.4-.79.48-1.25.39-2.12-1.02-4.15-3.15-4.54s-4.17,1.01-4.56,3.13c-.07.36-.06.72-.03,1.07,2.91-1.03,5.44-.13,7.26,1.59Z"/>
                  </g>
                  <path class="cls-25" d="M670.27,55.08c.07.21.14.43.27.61.23.33.72.52,1.07.31.35-.2.43-.67.38-1.06-.08-.7-.75-2.13-1.65-2.05-1.16.11-.25,1.67-.07,2.18Z"/>
                </g>
              </g>
              <g class="cls-31">
                <path class="cls-16" d="M628.55,212.89c-.74-6.04,3.81-12.03,9.87-12.82,2.23-.39,202.21,2.24,204.42,2.11-15.04-.31-15.22,23.34-.22,23.34h0s0,0,0,0l-202.64-2.23c-5.72.02-10.88-4.72-11.42-10.4Z"/>
                <path class="cls-27" d="M835.6,204.65c-1.99,1.56-3.49,3.78-4.13,6.44-1.52,6.25,2.29,12.57,8.52,14.09,3.58.88,7.18-.02,9.87-2.13,1.99-1.56,3.49-3.78,4.13-6.44,1.52-6.25-2.29-12.57-8.52-14.09-3.58-.88-7.18.02-9.87,2.13Z"/>
              </g>
              <polygon class="cls-16" points="754.29 201.18 741.52 201.18 737.16 224.35 760.55 224.66 754.29 201.18"/>
              <g class="cls-34">
                <g>
                  <path class="cls-23" d="M724.01,198.28c-1.58-.85-3.28-1.57-5.16-1.77-2.54-.28-4.98.79-7.08,2.46-2.72,2.18-4.87,5.4-5.92,8.1-1.36,3.5-1.43,7.28-.2,10.52.79,2.08,2.22,4.04,4.47,4.76,1.42.45,3.09.37,4.58-.23.5-.2,1.02-.5,1.26-.96.49-.97-.54-1.8-1.4-2.34-1.9-1.21-3.53-2.89-4.03-5.05-.25-1.06-.22-2.19-.07-3.3.36-2.74,1.48-5.61,3.74-7.62,2.08-1.85,5.23-2.73,7.58-1.83,0,0,5.31,1.95,7.75,3.74-.33-2.89-2.85-5.05-5.51-6.48Z"/>
                  <path class="cls-23" d="M719.67,196.36c-1.58-.85-3.28-1.57-5.16-1.77-2.54-.28-4.98.79-7.08,2.46-2.72,2.18-4.87,5.4-5.92,8.1-1.36,3.5-1.43,7.28-.2,10.52.79,2.08,2.22,4.04,4.47,4.76,1.42.45,3.09.37,4.58-.23.5-.2,1.02-.5,1.26-.96.49-.97-.54-1.8-1.4-2.34-1.9-1.21-3.53-2.89-4.03-5.05-.25-1.06-.22-2.19-.07-3.3.36-2.74,1.48-5.61,3.74-7.62,2.08-1.85,5.23-2.73,7.58-1.83,0,0,5.97.78,8.4,2.56-.33-2.89-3.51-3.88-6.16-5.31Z"/>
                  <path class="cls-23" d="M714.95,196.49c-1.58-.85-3.28-1.57-5.16-1.77-2.54-.28-4.98.79-7.08,2.46-2.72,2.18-4.87,5.4-5.92,8.1-1.36,3.5-1.43,7.28-.2,10.52.79,2.08,2.22,4.04,4.47,4.76,1.42.45,3.09.37,4.58-.23.5-.2,1.02-.5,1.26-.96.49-.97-.54-1.8-1.4-2.34-1.9-1.21-3.53-2.89-4.03-5.05-.25-1.06-.21-2.19-.07-3.3.36-2.74,1.48-5.61,3.74-7.62,2.08-1.85,5.23-2.73,7.58-1.83,0,0,7.15-1.09,9.58.7-.33-2.89-4.69-2.01-7.34-3.44Z"/>
                  <g class="cls-10">
                    <path class="cls-23" d="M719.67,196.36c-3.05-1.22-6.45-1.87-9.38-.15-5.39,3.26-9.26,9.64-8.95,16.02.22,3.18,1.31,6.69,4.42,8.2-3.63-.67-5.6-4.64-6.09-8.02-1.77-10.1,10.05-24.07,20-16.05h0Z"/>
                  </g>
                  <path class="cls-5" d="M729.52,204.77c-1.18-4.43-6.4-6.69-10.45-7.38-4.4-.42-8.06,3.16-10.38,6.6-2.51,3.62-3.65,8.18-2.54,12.48.53,2.1,1.63,4.14,3.53,5.15,1.41.79,3.26.86,4.83.4.54-.15,1.11-.36,1.44-.85-1.29,1.97-4.64,2.22-6.72,1.41-4.79-2.13-5.99-8.28-5.18-13,1.35-6.74,7.64-14.95,15.24-13.86,4.39.98,9.88,4.18,10.22,9.04h0Z"/>
                </g>
                <g>
                  <path class="cls-23" d="M745.16,198.56c-1.66-.9-3.46-1.67-5.44-1.89-2.68-.3-5.26.81-7.49,2.57-2.88,2.29-5.16,5.68-6.28,8.53-1.45,3.69-1.54,7.68-.26,11.11.82,2.2,2.33,4.27,4.7,5.04,1.49.48,3.26.4,4.84-.23.53-.21,1.08-.52,1.33-1.01.52-1.02-.57-1.9-1.47-2.48-2-1.28-3.71-3.07-4.23-5.34-.26-1.12-.22-2.31-.06-3.49.39-2.89,1.59-5.91,3.98-8.03,2.2-1.95,5.53-2.87,8.01-1.9,0,0,5.6,2.08,8.16,3.97-.34-3.05-2.99-5.34-5.79-6.86Z"/>
                  <path class="cls-23" d="M740.59,196.52c-1.66-.9-3.46-1.67-5.44-1.89-2.68-.3-5.26.81-7.49,2.58-2.88,2.29-5.16,5.68-6.28,8.53-1.45,3.69-1.54,7.68-.26,11.11.82,2.2,2.33,4.27,4.7,5.04,1.49.48,3.26.4,4.84-.23.53-.21,1.08-.52,1.33-1.01.52-1.02-.57-1.9-1.47-2.48-2-1.28-3.71-3.07-4.23-5.34-.26-1.12-.22-2.31-.06-3.49.39-2.89,1.59-5.91,3.98-8.03,2.2-1.95,5.53-2.87,8.01-1.9,0,0,6.29.84,8.86,2.74-.34-3.05-3.69-4.1-6.48-5.63Z"/>
                  <path class="cls-23" d="M735.61,196.63c-1.66-.9-3.46-1.67-5.44-1.89-2.68-.3-5.26.81-7.49,2.57-2.88,2.29-5.16,5.68-6.28,8.53-1.45,3.69-1.54,7.68-.26,11.11.82,2.2,2.33,4.27,4.7,5.04,1.49.48,3.26.4,4.84-.23.53-.21,1.08-.52,1.33-1.01.52-1.02-.57-1.9-1.47-2.48-2-1.28-3.71-3.07-4.23-5.34-.26-1.12-.22-2.31-.06-3.49.39-2.89,1.59-5.91,3.98-8.03,2.2-1.95,5.53-2.87,8.01-1.9,0,0,7.55-1.12,10.11.77-.34-3.05-4.94-2.14-7.74-3.66Z"/>
                  <g class="cls-10">
                    <path class="cls-23" d="M740.59,196.52c-3.21-1.3-6.8-2-9.9-.19-5.7,3.42-9.81,10.14-9.5,16.88.22,3.36,1.36,7.06,4.64,8.67-3.83-.72-5.89-4.92-6.4-8.49-1.84-10.67,10.7-25.37,21.16-16.87h0Z"/>
                  </g>
                  <g class="cls-10">
                    <path class="cls-23" d="M745.16,198.56c-3.72-1.67-7.92-2.05-11.24.56-6.11,4.54-10.14,13.23-6.89,20.57,1.13,2.71,3.84,4.5,6.8,4.08.95-.14,2.1-.27,2.74-1.09-1.13,1.84-3.89,2.17-5.9,1.89-4.68-.92-6.77-6.16-6.95-10.45-.5-10.35,11.3-23.61,21.44-15.56h0Z"/>
                  </g>
                </g>
              </g>
            </g>
          </g>
          <g>
            <g>
              <g>
                <g>
                  <g>
                    <path class="cls-17" d="M275.7,124.38c-3.94-31.19-12.65-91.69,5.98-120.67,2.69-4.18,8.43-4.95,12.16-1.67,16.15,14.22,31.98,56.2,41.39,71.04l-59.53,51.31Z"/>
                    <path class="cls-19" d="M285,116.21c-3.24-25.64-12.37-80.66,4.48-102.85,1.21-1.6,3.5-2.03,5.18-.94,13.99,9.02,29.54,50.49,37.54,63.11l-47.2,40.68Z"/>
                  </g>
                  <g>
                    <path class="cls-4" d="M303.08,69.51c-6.03-2.88-10.8-8.31-12.83-14.68,4.77,4.74,8.76,9.33,12.83,14.68h0Z"/>
                    <path class="cls-4" d="M305.34,67.3c-5.08-4.67-8.69-10.64-10.42-17.32,4.52,5.23,7.91,10.88,10.42,17.32h0Z"/>
                    <path class="cls-4" d="M308.6,65.79c-3.87-5.97-5.76-13.07-5.33-20.17,2.68,6.62,4.38,13.1,5.33,20.17h0Z"/>
                  </g>
                </g>
                <g>
                  <g>
                    <path class="cls-26" d="M410.87,124.38c3.94-31.19,12.65-91.69-5.98-120.67-2.69-4.18-8.43-4.95-12.16-1.67-16.15,14.22-31.98,56.2-41.39,71.04l59.53,51.31Z"/>
                    <path class="cls-19" d="M401.57,116.21c3.24-25.64,12.37-80.66-4.48-102.85-1.21-1.6-3.5-2.03-5.18-.94-13.99,9.02-29.54,50.49-37.54,63.11l47.2,40.68Z"/>
                  </g>
                  <g class="cls-10">
                    <path class="cls-19" d="M386.75,68.27c2.39-6.29,4.92-11.82,8.14-17.72-.15,6.69-3.17,13.25-8.14,17.72h0Z"/>
                    <path class="cls-19" d="M384.8,66.38c.35-6.9,1.78-13.34,4.42-19.73.46,6.88-1.07,13.69-4.42,19.73h0Z"/>
                    <path class="cls-19" d="M380.72,64.88c-.34-7.13.16-13.81,1.6-20.81,1.71,6.91,1.13,14.24-1.6,20.81h0Z"/>
                  </g>
                </g>
                <g>
                  <path class="cls-26" d="M227.11,635.95c-88.97,11.68-216.56-24.08-206.44-134.9,6.59,12.38,17.54,22.39,30.46,27.85-32.02-33.17-16.76-95.89,13.52-125.69-4.18,10.44-5.05,22.18-2.46,33.13,14.01-30.86,42.01-55.02,74.59-64.37-3.66,8.79-7.32,17.58-10.99,26.37,20.43-17.38,48.84-24.95,75.21-20.05-44.12,26.77-88.7,105.1-61.71,150.9,26.41,41.94,95.28,93.1,152,74.01l-64.19,32.75Z"/>
                  <path class="cls-13" d="M68.84,547.67c-8.67-13.56-13.71-29.1-21.45-43.21,4.08,8.56,11.9,15.25,20.99,17.95-9.21-16.51-10.44-36.4-8.25-55.18,2.18-18.65,7.66-36.87,15.9-53.74-5.46,7.05-10.15,14.7-13.84,22.84-2.59-10.95-1.72-22.68,2.46-33.13-30.28,29.8-45.54,92.52-13.52,125.69-12.92-5.45-23.87-15.46-30.46-27.85-10.12,110.82,117.47,146.58,206.44,134.9l13.35-6.81c-45.08-2.4-89.55-16.41-127.68-40.61-17.02-10.8-33.08-23.87-43.94-40.86Z"/>
                </g>
                <g>
                  <path class="cls-26" d="M347.48,684.66c-23.25-.64-46.51-1.29-69.76-1.94-3.49-.1-7.07-.21-10.29-1.72-4.29-2.01-7.43-6.23-10.1-10.52-10.04-16.07-16-34.92-20.69-53.86-17.46-70.5-18.75-145.15-11.27-217.86,7.48-72.72,33.4-143.93,50.17-214.65h71.95v500.55Z"/>
                  <path class="cls-26" d="M347.48,684.66c23.25-.64,46.51-1.29,69.76-1.94,3.49-.1,7.07-.21,10.29-1.72,4.29-2.01,7.43-6.23,10.1-10.52,10.04-16.07,16-34.92,20.69-53.86,17.46-70.5,18.75-145.15,11.27-217.86-7.47-72.72-33.4-143.93-50.17-214.65h-71.95v500.55Z"/>
                  <path class="cls-14" d="M265.26,222.34s21.03,20.19,81.07,20.19,83.11-20.19,83.11-20.19l-4.94-17.76s-21.68,18.97-78.11,18.97-76.2-18.97-76.2-18.97l-4.93,17.76Z"/>
                </g>
                <g>
                  <path class="cls-26" d="M245.83,509.75c-7.15-6.36-11.06-15.48-16.23-23.53-5.17-8.05-12.83-15.75-22.39-16.11-14.17-.54-23.48,14.56-27.73,28.09-16.91,53.79-2.33,116.26,36.65,157-9.72-.43-19.54,1.7-28.21,6.12-5.26,2.68-10.52,6.85-11.3,12.7-.87,6.46,4.36,12.49,10.46,14.79,6.1,2.3,12.86,1.76,19.36,1.2,27.08-2.37,54.16-4.74,81.24-7.11,1.67-.15,3.42-.32,4.81-1.26,2.28-1.54,2.88-4.6,3.17-7.33,4.53-41.99-14.88-82.45-33.77-120.23l-16.05-44.31Z"/>
                  <path class="cls-26" d="M449.98,509.75c7.15-6.36,11.07-15.48,16.23-23.53,5.17-8.05,12.83-15.75,22.39-16.11,14.17-.54,23.48,14.56,27.73,28.09,16.91,53.79,2.33,116.26-36.65,157,9.72-.43,19.54,1.7,28.21,6.12,5.26,2.68,10.52,6.85,11.3,12.7.87,6.46-4.36,12.49-10.46,14.79-6.1,2.3-12.86,1.76-19.36,1.2-27.08-2.37-54.16-4.74-81.24-7.11-1.67-.15-3.42-.32-4.81-1.26-2.28-1.54-2.87-4.6-3.17-7.33-4.53-41.99,14.88-82.45,33.77-120.23l16.05-44.31Z"/>
                </g>
                <g>
                  <path class="cls-17" d="M268.46,282.7c25.39,16.58,44.68,42.35,54.01,71.16.59,1.93,1.15,3.87,1.68,5.81-1.28-3.21-3.21-7.92-4.67-11.12-11.53-25.59-29.22-48.2-51.02-65.85h0Z"/>
                  <g>
                    <g>
                      <path class="cls-26" d="M239.62,330.89c-4.05,103.99,29.08,205.55,40.43,308.99.76,6.91,1.29,14.41-2.39,20.31-4.74,7.57-16.02,12.16-15.12,21.05.91,8.98,12.98,11,21.99,10.57,11.51-.54,23.03-1.08,34.54-1.62,2.09-.1,4.28-.22,6.07-1.31,3.74-2.26,4.13-7.43,4.09-11.8-.89-101.01-1.79-202.03-2.68-303.04l-86.93-43.16Z"/>
                      <path class="cls-17" d="M239.62,330.89c-3.03,105.18,30.09,206.6,41.6,310.38.58,5.8.91,12.18-1.7,17.68-3.72,9.2-22.35,15.81-13.61,27.02,7.3,6.35,17.97,4.59,27,4.36,0,0,23.21-1.04,23.21-1.04,3.84-.25,7.99.16,10.03-2.65,2.16-2.9,2.08-6.95,2.07-10.54-.38-57.19-1.04-151.78-1.41-209.11,0,0-.27-92.94-.27-92.94l1.38,92.93c.6,57.47,1.69,151.81,2.29,209.11.01,3.99.12,8.35-2.46,11.81-2.74,3.63-7.61,3.23-11.53,3.47-8.27.33-26.85,1.47-34.89,1.59-9.95.25-24.15-5.02-18.82-17.46,2.7-5.4,8.2-8.7,11.98-12.96,8.29-8.86,4.22-21.61,3.34-32.59-11.95-99.72-42.69-197.8-38.22-299.06h0Z"/>
                    </g>
                    <path class="cls-17" d="M271.59,690.97c-.23-.49-5.38-12.09,6.46-24.1l1.62,1.6c-10.7,10.85-6.21,21.13-6.01,21.56l-2.07.95Z"/>
                    <path class="cls-17" d="M282.38,692.07c-.16-.85-3.65-20.77,8.52-25.47l.82,2.12c-10.41,4.03-7.13,22.75-7.1,22.94l-2.23.41Z"/>
                    <path class="cls-17" d="M294.21,691.57c-.15-.83-3.65-20.36,8.52-24.97l.81,2.13c-10.42,3.94-7.13,22.24-7.09,22.42l-2.23.42Z"/>
                  </g>
                </g>
                <g>
                  <path class="cls-17" d="M426.49,282.7c-21.8,17.65-39.5,40.27-51.02,65.85-1.46,3.2-3.38,7.88-4.67,11.12.54-1.94,1.1-3.88,1.68-5.81,9.34-28.81,28.63-54.58,54.01-71.16h0Z"/>
                  <g>
                    <g>
                      <path class="cls-26" d="M455.33,330.89c4.05,103.99-29.08,205.55-40.43,308.99-.76,6.91-1.29,14.41,2.39,20.31,4.74,7.57,16.02,12.16,15.12,21.05-.91,8.98-12.98,11-21.99,10.57-11.51-.54-23.03-1.08-34.54-1.62-2.09-.1-4.28-.22-6.07-1.31-3.74-2.26-4.13-7.43-4.09-11.8.89-101.01,1.79-202.03,2.68-303.04l86.93-43.16Z"/>
                      <path class="cls-17" d="M455.33,330.89c4.46,101.27-26.27,199.34-38.22,299.06-.88,10.98-4.95,23.74,3.34,32.59,2.51,2.78,5.6,5.14,8.37,8.01,2.86,2.87,5.31,6.94,4.62,11.22-1.33,9.03-12.29,11.05-19.83,11.19-7.93-.12-26.74-1.27-34.89-1.59-3.92-.25-8.8.16-11.53-3.47-2.58-3.46-2.47-7.82-2.46-11.81l.25-23.23c.52-46.3,1.51-139.58,2.03-185.87,0,0,1.38-92.93,1.38-92.93l-.27,92.94c-.35,57.47-1.04,151.82-1.41,209.11-.01,3.59-.09,7.64,2.07,10.54,2.04,2.81,6.19,2.4,10.03,2.65l23.21,1.04c9.03.24,19.71,1.99,27-4.36,8.74-11.21-9.89-17.83-13.61-27.02-2.61-5.5-2.28-11.88-1.7-17.68,11.51-103.77,44.63-205.2,41.6-310.38h0Z"/>
                    </g>
                    <path class="cls-17" d="M423.36,690.97l-2.07-.95c.2-.43,4.69-10.7-6.01-21.56l1.62-1.6c11.84,12.01,6.68,23.61,6.46,24.1Z"/>
                    <path class="cls-17" d="M412.58,692.07l-2.23-.41c.03-.19,3.31-18.91-7.1-22.94l.82-2.12c12.16,4.7,8.67,24.62,8.52,25.47Z"/>
                    <path class="cls-17" d="M400.75,691.57l-2.23-.42c.03-.19,3.31-18.49-7.09-22.43l.81-2.13c12.17,4.61,8.68,24.14,8.52,24.97Z"/>
                  </g>
                </g>
                <polygon class="cls-17" points="245.64 660.04 231.43 658.25 215.73 656.28 216.01 654.02 232.48 656.09 245.92 657.78 245.64 660.04"/>
                <path class="cls-17" d="M450.75,662.64l-5.16,1.13c11.09-4.74,22.77-8.04,34.71-9.8l.33,2.25c-11.74,1.73-18.96,1.75-29.88,6.42Z"/>
                <path class="cls-17" d="M190.94,689.89c-3.73-1.52-7.3-3.53-9.11-6.82-1.94-3.52-2.36-7.78-1.12-11.38,1.34-3.89,4.54-6.89,8.36-7.85,0,0-5.14,5.47-6.21,8.59-1.04,3-.68,6.57.96,9.54,1.56,2.83,7.12,7.91,7.12,7.91Z"/>
                <path class="cls-17" d="M196.09,690.46c-4.02-4.31-5.87-9.19-4.89-15,.98-5.81,4.82-11.14,10.03-13.9,0,0-6.93,9.14-7.79,14.27-.86,5.13,2.65,14.63,2.65,14.63Z"/>
                <path class="cls-17" d="M204.26,690.18c-3.17-4.43-3.63-9.98-1.39-16.17,1.33-3.66,3.39-6.71,5.97-8.82,0,0-2.64,6.31-3.83,9.59-1.99,5.49-.75,15.4-.75,15.4Z"/>
                <path class="cls-17" d="M500.99,690.39c-.08-8.86-10.4-24.65-10.4-24.65,7.73,5.63,12.59,15.07,12.67,24.63l-2.27.02Z"/>
                <path class="cls-17" d="M511.1,686.69c-.36-8.8-12.23-23.4-12.23-23.4,8.42,4.58,14.12,13.73,14.5,23.31l-2.27.09Z"/>
                <path class="cls-17" d="M517,680.8c-1.22-6.93-11.69-18.15-11.69-18.15,7.22,3.18,12.56,9.99,13.93,17.76l-2.24.39Z"/>
                <path class="cls-17" d="M172.52,534.82c.14,31.97,7.73,64.19,23.15,92.26,2.05,4.12,4.71,7.87,6.99,11.87-22.59-29.17-33.21-67.45-30.14-104.13h0Z"/>
                <path class="cls-17" d="M221.04,476.11c18.6,23.63,30.53,52.47,35.52,82.05.71,4.23,1.06,8.53,1.5,12.79-6.03-33.66-18.46-66.08-37.01-94.84h0Z"/>
                <path class="cls-17" d="M482.24,471.48c-6.5,3.32-11.7,8.8-16.18,14.43-6.27,7.94-11.15,17.15-15.08,26.43-11.33,27.02-15.57,56.31-18.94,85.23,1.23-29.22,5.29-59.04,17.05-86.05,3.42-8.07,7.87-16,13.22-22.97,5.28-6.88,11.85-13.64,19.94-17.07h0Z"/>
                <path class="cls-26" d="M270.45,204.58s-17.29-144.59,77.03-144.59,77.03,144.59,77.03,144.59h-154.06Z"/>
                <path class="cls-17" d="M324.47,128.27c20.8-21.79-13.26-34.64,21.8-58.8,3.24-2.23,4.08-5.82,3.43-9.42-.74-.02-1.47-.05-2.23-.05-49.63,0-68.35,40.02-74.96,77.96,20.39,4.18,36.52,2.63,51.95-9.68Z"/>
                <g>
                  <path class="cls-26" d="M386.6,143.44c-1.57,3.99-5.01,6.66-8.27,9.08.42,2.87,1.93,5.79,1.28,8.75-3.99,16.22-34.92,14.41-33.32-3.68h-.12c1.6,18.09-29.33,19.9-33.32,3.68-.65-2.97.86-5.88,1.28-8.75-3.26-2.43-6.7-5.09-8.27-9.08h80.73Z"/>
                  <g>
                    <path class="cls-17" d="M305.87,143.44c1.92,3.92,5.54,6.33,9.02,8.75l-.05.44c-.3,2.44-1.17,4.66-1.17,6.76,1.08,11.72,17.48,14.66,26.28,9.45,4-2.25,6.36-6.61,6.23-11.23.95,4.75-1.3,9.89-5.41,12.51-12.89,8.64-34.99-.28-27.32-17.69,0,0,.27.66.27.66-3.22-2.54-6.63-5.58-7.85-9.65h0Z"/>
                    <path class="cls-17" d="M386.6,143.44c-1.22,4.07-4.63,7.1-7.85,9.65l.28-.67c7.67,17.42-14.44,26.33-27.32,17.69-4.11-2.62-6.36-7.77-5.41-12.51-.12,4.62,2.23,8.99,6.23,11.23,8.79,5.22,25.2,2.27,26.28-9.45,0-2.1-.88-4.32-1.17-6.76l-.05-.44c3.48-2.42,7.1-4.83,9.02-8.75h0Z"/>
                  </g>
                </g>
                <path class="cls-27" d="M324.47,133.07c3.13,7.48,11.76,14.53,21.77,17.43,10-2.9,18.63-9.95,21.77-17.43-6.39-4.26-37.15-4.26-43.54,0Z"/>
                <path class="cls-17" d="M346.24,181.32c-13.22,0-17.47-8.09-17.64-8.43l2.03-1.03c.15.29,3.86,7.19,15.62,7.19s15.72-6.92,15.88-7.21l2,1.08c-.19.34-4.68,8.4-17.88,8.4Z"/>
                <path class="cls-17" d="M329.61,126.62c11.38-6.14,21.57-8.22,32.77-.3-5.53-1.52-10.89-3.39-16.28-2.99-5.52.34-10.93,2.52-16.48,3.29h0Z"/>
              </g>
              <g>
                <g>
                  <path class="cls-27" d="M324.84,112.79c0,6.04-4.36,10.93-9.75,10.93s-9.75-4.89-9.75-10.93,4.36-10.93,9.75-10.93,9.75,4.89,9.75,10.93Z"/>
                  <g class="cls-2">
                    <path class="cls-27" d="M324.23,116.49c.37-1.16.61-2.39.61-3.69,0-6.04-4.36-10.93-9.75-10.93s-9.75,4.89-9.75,10.93c0,1.04.17,2.02.41,2.97,6.67-4.32,13.25-3.12,18.47.72Z"/>
                  </g>
                  <path class="cls-25" d="M318.38,110.47c.27.55.54,1.12.93,1.56.72.81,1.98,1.07,2.75.32.75-.73.75-2.05.46-3.12-.51-1.9-2.78-5.5-4.94-4.81-2.8.88.14,4.74.79,6.05Z"/>
                </g>
                <g>
                  <path class="cls-27" d="M383.86,112.79c0,6.04-4.36,10.93-9.75,10.93s-9.75-4.89-9.75-10.93,4.36-10.93,9.75-10.93,9.75,4.89,9.75,10.93Z"/>
                  <g class="cls-2">
                    <path class="cls-27" d="M383.25,116.49c.37-1.16.61-2.39.61-3.69,0-6.04-4.36-10.93-9.75-10.93s-9.75,4.89-9.75,10.93c0,1.04.17,2.02.41,2.97,6.67-4.32,13.25-3.12,18.47.72Z"/>
                  </g>
                  <path class="cls-25" d="M377.4,110.47c.27.55.54,1.12.93,1.56.72.81,1.98,1.07,2.75.32.75-.73.75-2.05.46-3.12-.51-1.9-2.78-5.5-4.94-4.81-2.8.88.14,4.74.79,6.05Z"/>
                </g>
              </g>
            </g>
            <g>
              <path class="cls-1" d="M347.19,243.18h0c-1.5,0-2.71-1.22-2.71-2.71v-14.2c0-1.5,1.22-2.71,2.71-2.71h0c1.5,0,2.71,1.22,2.71,2.71v14.2c0,1.5-1.22,2.71-2.71,2.71Z"/>
              <path class="cls-25" d="M362.74,242.9c1.23-.89,2.04-2.32,2.04-3.96,0-2.7-2.19-4.88-4.88-4.88s-4.88,2.19-4.88,4.88h-15.33c0-2.7-2.19-4.88-4.88-4.88s-4.88,2.19-4.88,4.88c0,1.63.81,3.07,2.04,3.96-1.23.89-2.04,2.32-2.04,3.96,0,2.7,2.19,4.88,4.88,4.88s4.88-2.19,4.88-4.88c0-.11-.03-.21-.03-.32h15.39c0,.11-.03.21-.03.32,0,2.7,2.19,4.88,4.88,4.88s4.88-2.19,4.88-4.88c0-1.63-.81-3.07-2.04-3.96Z"/>
            </g>
          </g>
          <g>
            <g>
              <g>
                <g>
                  <path class="cls-29" d="M529.66,360.21c-1.05-18.5-1.5-37.12.89-55.5.39-2.97,1.37-6.54,4.27-7.27,1.28-.32,2.62.03,3.86.48,8.17,2.9,14.47,9.42,20,16.1,5.1,6.16,9.82,12.64,14.12,19.38.62.97,1.24,1.98,1.38,3.11.19,1.45-.42,2.89-1.15,4.16-2.92,5.09-7.78,8.75-12.69,11.99-7.59,5-16.55,9.5-25.42,7.53l-5.28.03Z"/>
                  <path class="cls-24" d="M534.04,363.59c-.44-16.5-.35-33.09,2.25-49.39.42-2.64,1.39-5.79,4-6.36,1.15-.25,2.33.1,3.43.53,7.19,2.8,12.64,8.77,17.38,14.86,4.38,5.62,8.41,11.51,12.06,17.63.52.88,1.05,1.79,1.15,2.81.13,1.3-.45,2.56-1.14,3.67-2.74,4.46-7.16,7.59-11.61,10.34-6.89,4.26-14.98,8.02-22.83,6.03l-4.7-.11Z"/>
                </g>
                <g>
                  <path class="cls-3" d="M545.62,337.28c-3.8-3.28-6.04-7.97-6.16-12.99,3.09,3.98,5.02,8.08,6.16,12.99h0Z"/>
                  <path class="cls-3" d="M549,334.29c-2.97-3.74-4.56-8.21-4.58-12.99,3.02,3.84,4.51,8.11,4.58,12.99h0Z"/>
                  <path class="cls-3" d="M553.42,331.68c-2.17-2.41-2.86-5.26-2-8.39,2.18,2.4,2.85,5.27,2,8.39h0Z"/>
                </g>
              </g>
              <g>
                <g>
                  <path class="cls-29" d="M649.51,360.21c1.05-18.5,1.5-37.12-.89-55.5-.39-2.97-1.37-6.54-4.27-7.27-1.28-.32-2.62.03-3.86.48-8.17,2.9-14.47,9.42-20,16.1-5.1,6.16-9.82,12.64-14.12,19.38-.62.97-1.24,1.98-1.38,3.11-.19,1.45.42,2.89,1.15,4.16,2.92,5.09,7.78,8.75,12.69,11.99,7.59,5,16.55,9.5,25.42,7.53l5.28.03Z"/>
                  <path class="cls-24" d="M645.13,363.59c.44-16.5.35-33.09-2.25-49.39-.42-2.64-1.39-5.79-4-6.36-1.15-.25-2.33.1-3.43.53-7.19,2.8-12.64,8.77-17.38,14.86-4.38,5.62-8.41,11.51-12.06,17.63-.52.88-1.05,1.79-1.15,2.81-.13,1.3.45,2.56,1.14,3.67,2.74,4.46,7.16,7.59,11.61,10.34,6.89,4.26,14.98,8.02,22.83,6.03l4.7-.11Z"/>
                </g>
                <g>
                  <path class="cls-3" d="M633.56,337.28c1.14-4.91,3.07-9.01,6.16-13-.12,5.02-2.36,9.72-6.16,13h0Z"/>
                  <path class="cls-3" d="M630.17,334.29c.07-4.88,1.56-9.15,4.58-12.99-.02,4.78-1.61,9.25-4.58,12.99h0Z"/>
                  <path class="cls-3" d="M625.75,331.68c-.85-3.12-.18-5.99,2-8.39.86,3.13.17,5.99-2,8.39h0Z"/>
                </g>
              </g>
            </g>
            <g>
              <path class="cls-20" d="M694.89,700.77c46.88-.9,95.5-19.46,100.47-72.01,1.91-20.13-4.12-40.34-12.22-58.52-3.91-8.77-8.56-17.18-13.91-25.16-6.85-10.21-15.96-19.14-21.22-30.35-5.55-11.82-6.1-26.7.36-37.27,5.95-9.74,16.84-12.46,28.62-12.39,26.47.15,26.5-40.98,0-41.13-29.92-.17-56.75,13.58-68.49,41.96-13.35,32.28-2.16,64.72,18.53,90.77,3.93,4.95,9.96,13.81,14.23,21.51,5.25,9.49,7.21,13.78,10.15,23.94,2.89,9.98,3.44,11.87,3.13,21.98-.06,1.86-.16,3.74-.4,5.58.48-3.65-.17.34-.56,1.72-.21.74-1.93,6.22-1.2,4.37.64-1.63-1.59,3.01-2.1,3.99-2.58,4.95-9.02,10.15-15.28,12.93-12.51,5.56-26.63,6.68-40.12,6.94-26.43.51-26.52,41.64,0,41.13h0Z"/>
              <g>
                <path class="cls-20" d="M754.14,629.68c.18-1.36.2-1.66.14-1.42-.05.48-.08.95-.14,1.42Z"/>
                <path class="cls-20" d="M752.38,635.78c.2-.51.12-.4-.1.01-.11.43-.11.53.1-.01Z"/>
                <path class="cls-29" d="M743.92,491.2c-14.47-1.97-28.2-7.34-38.21-17.32-5.06,17.35-3.39,34.59,2.69,50.7,14.26,4.49,29.4,2.53,43.17-3.46-1.29-2.07-2.52-4.17-3.56-6.39-3.41-7.26-4.92-15.67-4.09-23.53Z"/>
                <path class="cls-29" d="M776.99,423.94c-10.83-.06-21.25,1.73-30.7,5.35-.31,14.19,2.98,28.33,9.24,40.81,5.91-3.84,13.48-5.08,21.46-5.03,26.47.15,26.5-40.98,0-41.13Z"/>
                <path class="cls-29" d="M741.26,578.19c2.34,4.22,4.02,7.41,5.43,10.55,13.97,4.33,29.71,5.37,44.4,2.78-2.15-7.3-4.9-14.44-7.95-21.28-2.82-6.32-6.03-12.45-9.61-18.37-12.59,6.97-27.1,11.1-40.98,12.37,2.98,4.35,6.16,9.35,8.71,13.95Z"/>
                <path class="cls-29" d="M754.55,616.78c.1,2,.09,4.28,0,7.32-.04,1.38-.13,2.77-.26,4.16.06-.23.04.07-.14,1.42.06-.47.09-.95.14-1.42-.11.39-.45,2.28-.7,3.14-.15.52-1.04,3.37-1.3,4.39.22-.42.3-.52.1-.01-.22.55-.21.44-.1.01-.49.91-1.65,3.31-2,3.98-1.03,1.98-2.69,3.99-4.69,5.87,4.88,12.97,10.4,25.68,17.87,36.82,13.74-9.05,24.3-21.88,29.24-39.35-14.37-5.95-27.43-14.87-38.15-26.33Z"/>
                <path class="cls-29" d="M718.79,657.55c-7.89,1.46-16,1.94-23.91,2.09-26.43.51-26.52,41.64,0,41.13,10.3-.2,20.67-1.25,30.66-3.32-4.93-12.31-6.93-26.35-6.75-39.9Z"/>
              </g>
            </g>
            <g>
              <g>
                <path class="cls-20" d="M589.14,708.27c-20.46-.34-40.92-.69-61.37-1.03-3.07-.05-6.22-.11-9.05-.92-3.77-1.07-6.53-3.33-8.89-5.62-8.83-8.59-14.08-18.66-18.2-28.78-15.36-37.67-16.49-77.56-9.92-116.42,6.58-38.86,29.38-76.91,44.14-114.7h63.3v267.47Z"/>
                <path class="cls-20" d="M589.14,708.27c20.46-.34,40.92-.69,61.37-1.03,3.07-.05,6.22-.11,9.05-.92,3.77-1.07,6.53-3.33,8.89-5.62,8.83-8.59,14.08-18.66,18.2-28.78,15.36-37.67,16.49-77.56,9.92-116.42-6.58-38.86-29.38-76.91-44.14-114.7h-63.3v267.47Z"/>
              </g>
              <path class="cls-20" d="M660.37,392.73c-4.68-61.85-71.23-61.85-71.23-61.85,0,0-66.55,0-71.23,61.85-4.72,62.45-25.1,83.37-34.52,154.32l105.75-65.42,105.75,65.42c-9.43-70.95-29.8-91.87-34.52-154.32Z"/>
              <path class="cls-20" d="M686.01,399.61c-15.1.46-34.97-37.25-34.97-37.25l-17.18,4.31-43.83-35.79h-.9l-43.83,35.79-19.54-1.8s-17.52,35.19-32.61,34.74c0,0,38.34,52.03,96.33,59.44v.03s.06-.01.1-.01c.03,0,.06.01.1.01v-.03c57.99-7.41,96.33-59.44,96.33-59.44Z"/>
              <path class="cls-29" d="M591.58,353.31c9.34-1.56,8.02-11.65,7.72-21.5-6.13-.92-10.17-.92-10.17-.92,0,0-3.81,0-9.66.85,2.03,10.33,4.96,21.57,12.11,21.57Z"/>
              <path class="cls-29" d="M614.31,355.58c10.43,6.52,14.87-1.93,17.2-12.46-7.23-4.47-14.84-7.31-21.58-9.11-2.17,8.34-1.11,17.91,4.38,21.57Z"/>
              <path class="cls-29" d="M571.13,355.58c7.55-4.53,4.06-13.09.2-22.32-4.4,1.02-9.28,2.5-14.27,4.59,3.12,10.36,8.59,21.37,14.07,17.72Z"/>
            </g>
            <g>
              <g>
                <g>
                  <path class="cls-20" d="M530.04,514.68c-2.61,67.2,18.79,96.47,26.13,163.32.49,4.47.84,9.31-1.55,13.12-3.06,4.89-10.35,7.86-9.77,13.6.59,5.8,8.39,7.11,14.21,6.83,7.44-.35,14.88-.7,22.32-1.05,1.35-.06,2.76-.15,3.92-.84,2.42-1.46,2.67-4.8,2.64-7.63-.58-65.28-1.15-94.19-1.73-159.47l-56.17-27.89Z"/>
                  <path class="cls-16" d="M516.72,514.68c5.15,30.53,13.44,60.32,23.56,89.56,5.62,16.47,10.46,33.32,13.58,50.47.85,5.11,2.03,12.1,2.61,17.25.45,3.85,1.15,7.64,1.12,11.69.12,4.05-1.55,8.45-4.6,11.15-2.47,2.59-6.09,4.79-6.95,8.26-.83,8.33,11.16,7.5,16.92,7.2,0,0,11.59-.52,11.59-.52l5.79-.26c4.41.1,6.28-1.15,6.49-5.61.51-40.26-4.45-81.31-3.53-121.58.23,30.99,3.82,61.69,5.1,92.63.28,7.74.42,15.47.53,23.21-.15,4.03.99,8.55-2.33,11.9-1.72,1.57-4.11,1.51-6.17,1.62l-5.79.28-11.58.56c-3.79.18-7.88.56-11.87-.5-7.9-1.74-10.03-9.35-4-14.78,4.2-3.73,8.65-7.49,8.24-13.59-.33-9.21-2.18-19.35-3.58-28.54-5.53-32.43-18.52-62.94-26.24-94.85-3.69-15.04-6.54-30.26-8.89-45.54h0Z"/>
                </g>
                <path class="cls-16" d="M550.33,711.18c-.15-.32-3.59-8.07,4.25-16.03,0,0-2.61,8.02-2.8,10.47-.22,2.73.6,4.57.62,4.6l-2.06.95Z"/>
                <path class="cls-16" d="M557.27,711.8c-.1-.56-2.41-13.75,5.75-16.9,0,0-3.71,7.8-3.84,11.34-.1,2.79.31,5.1.32,5.16l-2.23.41Z"/>
                <path class="cls-16" d="M564.91,711.47c-.1-.55-2.42-13.49,5.76-16.58,0,0-3.53,6.98-3.79,10.24-.24,3.1.25,5.87.26,5.93l-2.23.42Z"/>
              </g>
              <g>
                <g>
                  <path class="cls-20" d="M648.24,514.68c2.61,67.2-18.79,96.47-26.13,163.32-.49,4.47-.84,9.31,1.55,13.12,3.06,4.89,10.35,7.86,9.77,13.6-.59,5.8-8.39,7.11-14.21,6.83-7.44-.35-14.88-.7-22.32-1.05-1.35-.06-2.76-.15-3.92-.84-2.42-1.46-2.67-4.8-2.64-7.63.58-65.28,1.15-94.19,1.73-159.47l56.17-27.89Z"/>
                  <path class="cls-16" d="M662.14,514.68c-1.89,15.4-4.68,30.7-8.52,45.76-9.39,35.55-24.24,69.71-29.02,106.38-.59,5.48-1.82,11.78-1.76,17.16.03,3.79,1.41,7.01,4.28,9.54,4.58,3.93,11.06,9.8,5.15,15.84-4.95,4.16-11.68,3.34-17.61,3.09l-11.62-.56-5.81-.28c-2.06-.05-4.66-.3-6.11-2.13-2.75-3.69-1.62-7.93-1.77-12.01.11-7.76.32-15.53.67-23.29.57-15.52,2.67-30.96,4.17-46.39,1.41-15.43,2.12-30.93,2.48-46.44.06,15.51-.03,31.05-1.2,46.55-1.28,15.47-2.98,30.85-3.48,46.37-.31,7.74-.47,15.48-.54,23.23.14,3.4-.76,7.84,1.3,10.59.93,1.17,2.62,1.31,4.59,1.37l5.81.26,11.62.52c5.5.2,11.58.99,15.97-2.53,4.61-4.64-1.7-9.44-5.15-12.61-3.09-2.64-4.97-6.97-4.91-11.06-.03-5.84,1.22-11.81,1.85-17.53.84-5.33,1.95-11.93,3.11-17.23,6.09-30.56,18.81-59.17,26.99-89.11,4.16-14.93,7.28-30.14,9.51-45.5h0Z"/>
                </g>
                <path class="cls-16" d="M627.94,711.18l-2.06-.95,1.03.48-1.03-.47c.06-.12.65-1.5.67-3.6.02-2.55-2.86-11.47-2.86-11.47,7.84,7.96,4.4,15.7,4.25,16.03Z"/>
                <path class="cls-16" d="M621,711.8l-2.23-.41c1.84-9.31-3.52-16.5-3.52-16.5,7.39,2.12,5.86,16.35,5.75,16.9Z"/>
                <path class="cls-16" d="M613.36,711.47l-2.23-.42c.02-.12.66-12.35-4.33-14.04,0,0,7.92.12,6.57,14.46Z"/>
              </g>
            </g>
            <g>
              <g>
                <path class="cls-20" d="M512.24,550.54c-2.54-6.83-7.08-13.09-13.4-16.73-6.32-3.63-14.51-4.31-20.92-.85-7.98,4.31-11.67,13.67-13.92,22.46-6.51,25.4-6.15,52.59,1.53,77.66,7.67,25.07,22.7,47.92,43.01,64.5,3.49,2.85,7.22,5.56,11.49,7.02,4.27,1.46,9.21,1.52,13.1-.76,6.51-3.81,8.05-12.46,8.25-20.01,1.14-42.51-18.12-82.52-28.7-123.71l-.43-9.58Z"/>
                <path class="cls-20" d="M493.03,687.48c-4.59,2.37-9.14,6.66-8.48,11.79.42,3.24,2.92,5.91,5.86,7.35s6.25,1.83,9.5,2.08c11.28.86,22.61.21,33.9-.43,1.47-.08,2.98-.18,4.3-.82,3.71-1.81,4.19-7.3,1.99-10.8-4.1-6.53-15.43-10.2-22.43-12.47-7.84-2.54-17.5-.36-24.64,3.31Z"/>
              </g>
              <g>
                <path class="cls-16" d="M496.17,686.03c8.59-5.73,21.09-5.55,29.28.84-9.57-3.33-19.43-3.46-29.28-.84h0Z"/>
                <path class="cls-16" d="M493.07,690.57c-2.97,5.07-4.42,10.44-.75,15.22.46.68,1.01,1.29,1.48,2.05-.78-.36-1.56-.77-2.28-1.27-5.8-3.99-4.19-12.78,1.55-16h0Z"/>
                <path class="cls-16" d="M500.42,690.57c-3.91,4.94-5.03,10.51-1.8,15.82.42.75.89,1.47,1.29,2.31-.76-.48-1.48-1.03-2.17-1.63-5.38-4.79-3.82-13.61,2.69-16.5h0Z"/>
                <path class="cls-16" d="M507.21,690.57c-3.61,5.12-5.51,10.87-1.89,16.2.44.75.99,1.44,1.45,2.27-.79-.45-1.58-.96-2.3-1.55-5.79-4.7-3.5-13.82,2.75-16.92h0Z"/>
              </g>
            </g>
            <g>
              <g>
                <path class="cls-20" d="M666.93,550.54c2.54-6.83,7.08-13.09,13.4-16.73,6.32-3.63,14.51-4.31,20.92-.85,7.98,4.31,11.67,13.67,13.92,22.46,6.51,25.4,6.15,52.59-1.53,77.66-7.67,25.07-22.7,47.92-43.01,64.5-3.49,2.85-7.22,5.56-11.49,7.02-4.27,1.46-9.21,1.52-13.1-.76-6.51-3.81-8.05-12.46-8.25-20.01-1.14-42.51,18.12-82.52,28.7-123.71l.43-9.58Z"/>
                <path class="cls-20" d="M686.14,687.48c4.59,2.37,9.14,6.66,8.48,11.79-.42,3.24-2.92,5.91-5.86,7.35s-6.25,1.83-9.5,2.08c-11.28.86-22.61.21-33.9-.43-1.47-.08-2.98-.18-4.3-.82-3.71-1.81-4.19-7.3-1.99-10.8,4.1-6.53,15.43-10.2,22.43-12.47,7.84-2.54,17.5-.36,24.64,3.31Z"/>
              </g>
              <g>
                <path class="cls-16" d="M653.72,686.87c8.54-6,20.4-6.24,29.77-1.81,4.19,1.56,10.5,5.35,11.38,10.88.3,1.84-.03,3.69-.79,5.28.39-1.72.46-3.49-.06-5.08-1.71-4.87-6.88-7.51-11.46-9.12-9.04-3.92-19.71-3.99-28.84-.16h0Z"/>
                <path class="cls-16" d="M686.1,690.57c5.74,3.22,7.35,12.01,1.55,16-.72.5-1.5.92-2.28,1.27.47-.76,1.03-1.37,1.48-2.05,3.68-4.78,2.23-10.15-.75-15.22h0Z"/>
                <path class="cls-16" d="M678.75,690.57c6.51,2.9,8.07,11.71,2.69,16.5-.7.59-1.42,1.15-2.17,1.63.4-.83.87-1.56,1.29-2.31,3.22-5.31,2.1-10.88-1.8-15.82h0Z"/>
                <path class="cls-16" d="M671.97,690.57c6.25,3.1,8.53,12.22,2.75,16.92-.72.6-1.51,1.1-2.3,1.55.46-.83,1.01-1.52,1.45-2.27,3.62-5.34,1.72-11.08-1.89-16.2h0Z"/>
              </g>
            </g>
            <path class="cls-20" d="M653.72,421.61l-125.88-.08s-55.46,63.54-7.24,114.63c16.08,17.03,42.59,31.69,68.53,50.22v.25c.06-.04.12-.08.18-.13.06.04.12.08.18.13v-.25c25.95-18.53,52.46-33.19,68.53-50.22,48.23-51.09-4.3-114.55-4.3-114.55Z"/>
            <g>
              <path class="cls-20" d="M603.03,577.02c21.32-14.35,41.71-26.8,55-40.86,13-13.78,19.45-28.38,21.92-42.37"/>
              <path class="cls-16" d="M603.03,577.02c27.04-19.57,59.3-36.87,72.34-69.41,1.87-4.46,3.35-9.09,4.57-13.82-.54,4.85-1.55,9.7-3.19,14.35-11.57,33.7-45.8,50.54-73.72,68.88h0Z"/>
            </g>
            <g>
              <path class="cls-20" d="M503.62,482.74c.29,17.9-.19,35.23,16.98,53.42,13.22,14,33.49,26.4,54.7,40.67"/>
              <path class="cls-16" d="M503.62,482.74c.76,10.47,1.06,21.08,4.42,30.88,6.71,20.13,24.9,33.13,41.44,45.14,8.56,6.06,17.26,11.97,25.82,18.07-21.81-14.38-46.26-26.81-62.19-48.19-9.58-13.25-10.53-30.15-9.49-45.89h0Z"/>
            </g>
            <path class="cls-16" d="M548.35,484.85c-6.56,15.83-1.07,35.8,12.81,45.75l-1.4.77-.83-10.36c-.1-.97,1.25-1.44,1.77-.63,6.78,9.5,17.92,15.2,25.56,24.16,2.62,3.05,4.78,6.65,5.92,10.61l-1.94-.35c6.69-8.82,12.38-18.42,16.9-28.55.22-.49.79-.71,1.28-.5,3,2.07,4.93,5.5,5.45,9.05l-1.2-.67c15.32-6.43,26.74-21.18,29.45-37.61-1.8,16.86-13.23,32.28-28.76,39.21-.5.23-1.11-.1-1.2-.64-.49-3.05-2.26-5.86-4.71-7.67l1.47-.39c-4.5,10.29-10.18,20.08-16.9,29.09-.36.49-1.06.59-1.54.23-2.65-7.45-8.02-13.45-14.22-18.41-5.93-5.03-12.46-9.78-17.13-16.44l1.77-.63.64,10.37c.09.74-.84,1.23-1.4.77-14.1-10.57-19.38-31.35-11.77-47.18h0Z"/>
            <path class="cls-16" d="M560.82,438.94c18.72,5.56,38.87,5.92,57.68.67,2.37-.64,5.72-1.73,8.03-2.5-1.25.65-2.51,1.28-3.78,1.89-19.34,8.72-42.66,8.91-61.94-.07h0Z"/>
            <path class="cls-27" d="M580.49,400.81c1.31,3.13,4.91,6.07,9.09,7.28,4.18-1.21,7.78-4.15,9.09-7.28-2.67-1.78-15.52-1.78-18.18,0Z"/>
            <path class="cls-16" d="M573.25,415.4c3.85,4.82,12.77,6.35,15.27-.29.27-1.01,1.79-1.05,2.13-.08,1.82,4.34,8.46,6.05,12.44,3.69,1.41-.85,2.48-2.39,2.62-4.21.71,9.41-14.63,8.87-17.18,1.32,0,0,2.14-.05,2.14-.05-2.98,8.16-14.16,6.74-17.43-.39h0Z"/>
            <g>
              <g>
                <path class="cls-16" d="M560.78,401.86c-23.32-.03-44.8,9.75-66.23,17.74,5.06-2.83,10.25-5.38,15.52-7.8,15.73-7.12,33.3-12.39,50.71-9.95h0Z"/>
                <path class="cls-16" d="M560.38,406.83c-18.44,6.67-36.48,14.44-54.03,23.19,16.03-11.48,34.66-19.49,54.03-23.19h0Z"/>
                <path class="cls-16" d="M558.53,414.36c-15.92,8.65-31.12,17.85-46.19,27.92,13.07-12.51,29.04-22.15,46.19-27.92h0Z"/>
              </g>
              <g>
                <path class="cls-16" d="M618.39,401.86c17.42-2.45,34.98,2.83,50.71,9.95,5.27,2.42,10.46,4.97,15.52,7.8-21.44-8-42.92-17.77-66.23-17.74h0Z"/>
                <path class="cls-16" d="M618.79,406.83c19.37,3.7,38,11.71,54.03,23.19,0,0-6.65-3.21-6.65-3.21-15.4-7.61-31.26-14.06-47.38-19.98h0Z"/>
                <path class="cls-16" d="M620.64,414.36c17.15,5.76,33.12,15.41,46.19,27.92-15.07-10.06-30.27-19.26-46.19-27.92h0Z"/>
              </g>
            </g>
            <path class="cls-16" d="M683,686.03c11.68-14.98,20.6-31.76,29.24-48.62-5.74,18.09-15.17,35.66-29.24,48.62h0Z"/>
            <g>
              <g>
                <path class="cls-27" d="M573.3,384.14c0,4.7-3.4,8.52-7.6,8.52s-7.6-3.81-7.6-8.52,3.4-8.52,7.6-8.52,7.6,3.81,7.6,8.52Z"/>
                <g class="cls-2">
                  <path class="cls-27" d="M572.82,387.02c.29-.9.48-1.86.48-2.88,0-4.7-3.4-8.52-7.6-8.52s-7.6,3.81-7.6,8.52c0,.81.13,1.57.32,2.31,5.2-3.36,10.33-2.43,14.4.56Z"/>
                </g>
                <path class="cls-25" d="M568.26,382.33c.21.43.42.87.73,1.22.56.63,1.55.83,2.15.25.59-.57.59-1.6.36-2.43-.4-1.48-2.17-4.28-3.85-3.75-2.18.69.11,3.69.62,4.71Z"/>
              </g>
              <g>
                <path class="cls-27" d="M619.3,384.14c0,4.7-3.4,8.52-7.6,8.52s-7.6-3.81-7.6-8.52,3.4-8.52,7.6-8.52,7.6,3.81,7.6,8.52Z"/>
                <g class="cls-2">
                  <path class="cls-27" d="M618.82,387.02c.29-.9.48-1.86.48-2.88,0-4.7-3.4-8.52-7.6-8.52s-7.6,3.81-7.6,8.52c0,.81.13,1.57.32,2.31,5.2-3.36,10.33-2.43,14.4.56Z"/>
                </g>
                <path class="cls-25" d="M614.26,382.33c.21.43.42.87.73,1.22.56.63,1.55.83,2.15.25.59-.57.59-1.6.36-2.43-.4-1.48-2.17-4.28-3.85-3.75-2.18.69.11,3.69.62,4.71Z"/>
              </g>
            </g>
          </g>
          <g>
            <g>
              <g>
                <path class="cls-25" d="M735.29,504.11c-4.54-6.18-8.34-12.93-11.28-20.13-.09-.11-.14-.22-.14-.34,0-3.29,39.24-5.96,87.65-5.96s87.65,2.67,87.65,5.96h0s0,0,0,0c0,.11-.05.23-.14.34-2.96,7.24-6.8,14.04-11.37,20.25,28.77,22.76,47.24,58.01,47.05,97.24-.22,47-26.77,87.77-65.64,108.34-2.3,1.22-4.87,1.88-7.47,1.88h-100.14c-2.61,0-5.17-.66-7.48-1.88-39.04-20.66-65.64-61.69-65.64-108.94,0-39.25,18.36-74.21,46.96-96.77Z"/>
                <g class="cls-10">
                  <path class="cls-22" d="M723.87,483.65c0-3.29,39.24-5.96,87.65-5.96s87.65,2.67,87.65,5.96-39.24,5.96-87.65,5.96-87.65-2.67-87.65-5.96Z"/>
                </g>
              </g>
              <g>
                <g>
                  <path class="cls-14" d="M725.96,530.43c57.52,7.9,115,4.21,171.29.46,15.31,19.03,24.45,43.18,24.33,69.31-.2,41.99-23.91,78.42-58.65,96.8-2.06,1.09-4.35,1.68-6.68,1.68h-89.47c-2.33,0-4.62-.59-6.68-1.68-34.88-18.46-58.65-55.12-58.65-97.33,0-26.24,9.19-50.33,24.51-69.24Z"/>
                  <path class="cls-8" d="M896.31,550.4c-8.71,1.78-16.32,6.83-24.12,11.09-16.38,8.92-35.65,14.68-53.7,9.99-8.08-2.1-15.48-6.17-23.11-9.54-21.26-9.38-45.78-13.33-67.88-6.18-6.97,2.26-13.55,5.55-20.24,8.55,4.22-12.44,10.6-23.89,18.7-33.88,57.52,7.9,115,4.21,171.29.46,4.85,6.03,9.08,12.57,12.59,19.53-4.45-.9-9.08-.93-13.53-.02Z"/>
                  <path class="cls-8" d="M708.51,611.25c11.62-3.25,22.26-9.27,33.65-13.24,11.39-3.97,24.38-5.76,35.25-.52,10.98,5.29,18.39,17.06,30.16,20.22,8.71,2.34,17.97-.61,26.05-4.63,8.08-4.01,15.71-9.14,24.4-11.57,7.55-2.11,15.53-2.07,23.36-1.61,13.63.8,28.1,3.38,39.74,9.99-1.45,15.78-6.24,30.6-13.65,43.74-8.31-3.95-18.11-5.35-27.44-5.44-8.56-.08-17.23.73-25.32,3.54-9.33,3.24-17.54,8.98-26.24,13.63-16.27,8.69-35.58,13.61-53.28,8.41-8.68-2.55-16.53-7.38-25.09-10.3-9.51-3.24-19.8-3.82-29.68-2.05-9.66-14.22-16.07-30.81-18.19-48.73,2.12-.39,4.21-.87,6.29-1.45Z"/>
                </g>
                <path class="cls-26" d="M848.02,668.79c13.31,2.09,26.86,5.05,38.69,11.24-7.11,6.65-15.1,12.38-23.78,16.97-2.06,1.09-4.35,1.68-6.68,1.68h-89.47c-2.33,0-4.62-.59-6.68-1.68-8.4-4.45-16.15-9.95-23.08-16.33,14-7.37,29.55-11.89,45.29-13.97,21.8-2.89,43.99-1.33,65.71,2.09Z"/>
                <g>
                  <ellipse class="cls-14" cx="811.25" cy="530.57" rx="85.52" ry="8.25"/>
                  <g class="cls-10">
                    <ellipse class="cls-14" cx="811.25" cy="530.57" rx="85.52" ry="8.25"/>
                  </g>
                </g>
              </g>
            </g>
            <g>
              <g>
                <g>
                  <path class="cls-18" d="M844.06,587.22c-1.42-6.87-6.8-13.1-13.7-14.34-3.02-.54-6.13-.16-9.13.48-1.48.31-2.98.69-4.49.58-1.6-.12-3.11-.78-4.66-1.2-4.93-1.33-10.48-.06-14.34,3.28,3.23,0,6.65.45,9.21,2.42.63.49,1.21,1.08,1.55,1.81.86,1.87-.06,4.15.61,6.09.5,1.45,1.78,2.46,3,3.38.5.38,1.03.78,1.66.86.38.05.77-.02,1.14-.1,1.82-.41,3.54-1.16,5.36-1.58,1.82-.41,3.82-.46,5.43.48l18.36-2.17Z"/>
                  <g class="cls-10">
                    <path class="cls-18" d="M802.32,576.61c.1-.19,2.55-4.63,10.62-.9,5.07,2.36,8.08,1.35,10.73.48,2.11-.7,4.1-1.35,7.05-.38,6.41,2.12,5.09,8.51,5.03,8.78l1.26.27c.02-.08,1.62-7.81-5.89-10.28-3.36-1.11-5.65-.35-7.86.38-2.66.88-5.17,1.71-9.78-.42-9.2-4.28-12.28,1.43-12.31,1.49l1.15.58Z"/>
                  </g>
                  <path class="cls-11" d="M806.31,578.31l1.26.27s.09-.28.5-.45c.58-.25,2.04-.4,5.42,1.34,4.06,2.1,6.66,1.02,8.95.06,1.42-.59,2.64-1.1,4.11-.87,3.54.57,2.74,6.03,2.73,6.09l1.28.2c.36-2.35.04-6.94-3.8-7.56-1.83-.29-3.35.34-4.81.95-2.23.93-4.33,1.81-7.86-.02-2.99-1.55-5.21-2-6.61-1.34-.95.45-1.15,1.24-1.17,1.33Z"/>
                  <g class="cls-10">
                    <path class="cls-18" d="M808.99,582.82c.88-.15,2.51-.43,3.75-.02.16.05.32.12.48.18.31.12.63.25.99.33,1.13.24,2.17-.13,3.17-.48.74-.26,1.44-.51,2.13-.49,1.64.04,2.97,1.55,4.08,2.96l1.01-.8c-1.3-1.65-2.87-3.41-5.07-3.46-.92-.02-1.76.28-2.58.56-.87.31-1.7.6-2.48.43-.27-.06-.52-.16-.77-.26-.18-.07-.36-.14-.55-.21-1.37-.46-2.91-.29-4.38-.03l.22,1.27Z"/>
                  </g>
                </g>
                <g>
                  <path class="cls-18" d="M746.62,555c.78-1.1,1.96-2.34,3.24-1.92-.82,1.48-1.66,3.09-1.42,4.77.43,2.99,3.92,4.38,6.91,4.87,3.92.64,8.02.77,11.59,2.5,6.51,3.14,9.65,10.96,9.47,18.18-.06,2.53-.45,5.09.1,7.55.73,3.26,3.1,6.03,6.04,7.62,2.94,1.59,6.39,2.09,9.72,1.83l-3.63,6.94c-.37.44-.77.85-1.19,1.25.81.03,1.62.07,2.41.12-.8.05-1.75.44-2.69,1-3.63,2.15-5.89,6-6.26,10.2-.36,4.08.34,8.31-.31,12.64-1.2,22.82-25.1,10.19-25.19,28.92-8.96-15.93,9.3-20.79,3.84-29.38-1.55-1.33-3.47-2.55-2.87-4.89.9-7.56,4.92-12.24,10.33-15.03-1.9-.64-3.75-1.48-5.48-2.49-2.43-1.4-4.77-3.23-5.9-5.8-1.55-3.52-.49-7.58.37-11.33.87-3.75,1.43-8.04-.85-11.14-2.76-3.76-8.5-4.13-11.56-7.65-2.26-2.6-2.55-6.46-1.61-9.77.94-3.31,2.95-6.2,4.94-9Z"/>
                  <g class="cls-33">
                    <g>
                      <g class="cls-10">
                        <path class="cls-18" d="M755.62,661.26l1.09-.69c-.35-.55-.32-1.36.08-2.48.87-2.44,2.46-4.67,4.48-6.28,1.16-.92,2.49-1.69,3.79-2.43,1.86-1.07,3.79-2.17,5.3-3.79,3.66-3.92,3.93-9.49,4.2-14.88.03-.57.06-1.14.09-1.71.28-4.89,1.02-8.45,2.38-11.52,1.7-3.84,4.55-6.81,7.8-8.17l-.49-1.19c-3.61,1.5-6.62,4.64-8.48,8.83-1.43,3.22-2.2,6.91-2.49,11.97-.03.57-.06,1.14-.09,1.72-.26,5.16-.52,10.49-3.86,14.06-1.38,1.48-3.14,2.49-5,3.55-1.34.77-2.72,1.56-3.95,2.54-2.24,1.79-3.93,4.16-4.89,6.85-.54,1.52-.53,2.7.04,3.61Z"/>
                      </g>
                      <g class="cls-10">
                        <path class="cls-18" d="M751.73,658.48l1.29.13c.62-6.34,4.74-11.45,8.1-14.62.36-.34.72-.67,1.09-1,1.83-1.67,3.72-3.4,4.76-5.73,1.21-2.71,1.04-5.69.87-8.58-.08-1.35-.16-2.74-.09-4.07.23-4.62,2.38-9.27,5.9-12.75,3.26-3.24,7.77-5.55,12.69-6.52l-.25-1.27c-5.17,1.02-9.91,3.46-13.35,6.87-3.74,3.71-6.03,8.67-6.28,13.6-.07,1.4.01,2.83.09,4.21.17,2.85.33,5.54-.76,7.97-.93,2.09-2.72,3.72-4.45,5.31-.37.34-.74.68-1.1,1.02-3.51,3.33-7.84,8.7-8.49,15.43Z"/>
                      </g>
                      <g class="cls-10">
                        <path class="cls-18" d="M765.44,605.51c1.51.63,3.17,1.03,4.9,1.18,4.81.4,9.57-1.04,13.98-2.65l-.44-1.21c-4.28,1.56-8.87,2.96-13.43,2.58-4.93-.41-9.14-3.09-10.73-6.83-.97-2.27-1-4.76-1.03-7.39-.03-2.34-.06-4.77-.8-7.05-1.86-5.69-8.41-9.67-15.23-9.27l.07,1.29c6.26-.37,12.25,3.24,13.93,8.38.68,2.1.71,4.42.74,6.67.03,2.64.06,5.38,1.13,7.88,1.2,2.83,3.72,5.12,6.9,6.44Z"/>
                      </g>
                      <g class="cls-10">
                        <path class="cls-18" d="M772.83,599.03c3.41,1.41,7.55,2.08,12.52,2.03v-1.29c-6.93.06-12.13-1.29-15.91-4.13-2.88-2.17-4.97-5.29-5.89-8.79-.35-1.33-.54-2.77-.72-4.15-.34-2.6-.7-5.29-2.12-7.6-2.33-3.8-6.64-5.37-10.82-6.89-.63-.23-1.25-.45-1.86-.69-1.51-.57-3.08-1.26-4.23-2.38-1.42-1.38-2.3-3.5-2.48-5.99-.16-2.3.25-4.64.65-6.9l-1.27-.23c-.41,2.34-.84,4.75-.67,7.21.2,2.81,1.21,5.23,2.86,6.83,1.32,1.28,3.02,2.04,4.67,2.66.62.23,1.25.46,1.88.69,3.97,1.44,8.07,2.94,10.16,6.35,1.28,2.08,1.6,4.51,1.94,7.09.19,1.42.38,2.9.75,4.31.98,3.77,3.24,7.14,6.36,9.49,1.25.94,2.63,1.73,4.17,2.36Z"/>
                      </g>
                      <path class="cls-11" d="M779.73,598.83c.92.38,1.88.69,2.86.93l.3-1.25c-3.19-.77-6.22-2.47-8.53-4.8-2.29-2.3-3.68-5.05-3.92-7.73-.12-1.37.03-2.73.2-4.18.13-1.08.25-2.2.25-3.32,0-4.3-1.97-8.51-5.26-11.27-1.67-1.4-3.62-2.4-5.51-3.36-.97-.5-1.98-1.01-2.92-1.57-.56-.33-1.19-.73-1.54-1.29-.6-.95-.38-2.18-.15-3.49.14-.8.29-1.63.27-2.46l-1.29.04c.02.69-.11,1.42-.25,2.19-.27,1.49-.54,3.03.33,4.41.5.8,1.29,1.3,1.98,1.71.98.58,2,1.1,3,1.61,1.9.97,3.7,1.89,5.26,3.2,3.01,2.52,4.8,6.36,4.8,10.28,0,1.05-.12,2.13-.25,3.17-.17,1.44-.34,2.94-.2,4.44.27,2.98,1.79,6.01,4.29,8.52,1.8,1.82,3.94,3.25,6.28,4.22Z"/>
                    </g>
                  </g>
                </g>
                <g>
                  <path class="cls-29" d="M779.42,600.23c1.44-3.09,4.61-1.88,6.34-.91,1.15.64,2.44.99,3.73.95,6.13-.78,10.55-5.15,12.87-8.08,2.49-3.16,5.43-5.96,8.84-8.1,24.08-15.11,42.29,9.51,42.29,9.51,3.57-.92,2.78,3.71,2.78,3.71,3.14,3.22-1.69,4.53-1.69,4.53-1.8,10.83-10.65,19.96-21.26,22.78-10.61,2.82-22.46-.45-30.63-7.79-2.29-2.06-4.34-4.43-6.95-6.06-2.28-1.42-5.18-2.2-7.7-1.43-.03.02-5.4,3.42-6.9.66-1.5-2.78,2.48-5.08,2.48-5.08,0,0-5.35-2.21-4.2-4.68Z"/>
                  <g class="cls-6">
                    <path class="cls-29" d="M829.37,616.29c-1.73-.22-3.59-.52-4.83-1.75-1.22-1.21-1.56-3.12-1.18-4.8s1.38-3.15,2.52-4.44c-2.14-1.13-4.7-1.49-6.58-3.02-1.56-1.27-2.48-3.29-2.41-5.3.07-2.01,1.14-3.96,2.79-5.11-2.58-.49-4.91-2.15-6.2-4.43-.7-1.23-1.07-2.62-1.14-4.03,9.28-5.39,17.65-4.94,24.38-2.42-1,1.6-1.46,3.54-1.19,5.41.45,3.14,2.93,5.88,6,6.65-1.85,1.72-2.68,4.46-2.11,6.92.57,2.46,2.53,4.55,4.94,5.28-.94,1.81-1.68,3.97-.87,5.84.63,1.44,2.09,2.39,3.62,2.78.63.16,1.28.24,1.93.28-3.94,5.02-9.53,8.81-15.71,10.46-.72.19-1.45.35-2.18.49-.92-.61-1.7-1.41-2.22-2.38-1.07-2-.88-4.6.46-6.42Z"/>
                    <path class="cls-29" d="M794.2,604.13c-1.92,0-3.96-1.18-4.35-3.06-.06-.28-.08-.56-.07-.85,3.97-.58,7.21-2.66,9.6-4.83.14.93.46,1.82,1.04,2.57,1.33,1.74,3.63,2.38,5.77,2.83-.78,1.48-1.56,2.98-1.87,4.62s-.07,3.47,1.02,4.73c1.2,1.41,3.19,1.86,5.04,1.92-1.07,1.85-2.04,3.78-2.48,5.87-.18.85-.26,1.72-.23,2.59-1.77-1.08-3.44-2.32-4.98-3.7-2.29-2.06-4.34-4.43-6.95-6.06-1.19-.74-2.55-1.3-3.94-1.56.05-.43.15-.86.27-1.27.42-1.4,1.16-2.7,2.13-3.8Z"/>
                  </g>
                </g>
                <g class="cls-10">
                  <path class="cls-29" d="M840.88,611.74c-3.63-2.67-5.82-6.2-6.61-10.63-1.24,4.44,2.08,9.77,6.61,10.63h0Z"/>
                </g>
                <g>
                  <path class="cls-18" d="M833.36,610.59c.24,3.67.39,7.38-.35,10.99-.73,3.6-2.43,7.12-5.3,9.41-2.71,2.15-6.37,3.17-8.41,5.96-1.07,1.46-1.57,3.25-2.46,4.83-1.68,2.98-4.81,5.09-8.2,5.52,1.93-1.52,2.9-4.15,2.44-6.56-.18-.94-.56-1.83-.67-2.78-.17-1.43.31-2.93,1.27-3.99.75-.83,1.81-1.45,2.2-2.5.52-1.41-.37-2.91-.76-4.36-.69-2.56.32-5.49,2.45-7.07,2.37-1.76,9.73-.65,15.02-5.76.75-.73,1.39-1.56,1.96-2.43l.81-1.24Z"/>
                  <path class="cls-11" d="M832.84,614.78c-.57,2.65-2.1,4.89-3.97,6.68-2.79,2.86-6.95,4.12-9.72,7.16-1.91,2.12-2.37,4.96-3.25,7.52-.4,1.21-1,2.55-2.36,2.89.69,0,1.35-.39,1.81-.91,2.15-2.55,2.36-6.31,4.71-8.68,1.8-1.9,4.26-3.04,6.43-4.56,3.32-2.31,6.27-5.94,6.35-10.11h0Z"/>
                  <path class="cls-11" d="M831.54,615.24c-2.23,2.83-5.2,4.68-8.71,5.4-1.7.43-3.66.93-5.08,2.35-1.14.94-1.14,2.53-1.87,3.66-.26.31-.63.59-1.09.58.44.16.97-.03,1.33-.33,1.01-.88,1.22-2.44,2.31-3.16,1.29-1.03,2.97-1.43,4.72-1.84,3.57-.72,7.04-3.19,8.39-6.65h0Z"/>
                </g>
                <g class="cls-10">
                  <path class="cls-29" d="M820.56,602.1c.62.26,1.29.4,1.97.41,0,0-2.97-2.23-3.57-3.59-.29-.66-.59-1.96.59-3.26l.71-.79-1.03-.27c-1.81-.48-2.93-1.24-3.23-2.21-.35-1.13.26-4.16.26-4.16-1.42,1.66-1.92,3.19-1.5,4.55.38,1.21,1.48,2.16,3.24,2.79-.71,1.19-.8,2.55-.23,3.86.53,1.21,1.55,2.16,2.78,2.67Z"/>
                </g>
                <g class="cls-10">
                  <path class="cls-29" d="M816.02,609.69c.62.26,1.29.4,1.97.41,0,0-2.97-2.23-3.57-3.59-.29-.66-.59-1.96.59-3.26l.71-.79-1.03-.27c-1.82-.48-2.93-1.24-3.23-2.21-.35-1.13.26-4.16.26-4.16-1.42,1.66-1.92,3.18-1.5,4.54.38,1.21,1.48,2.17,3.24,2.79-.71,1.19-.8,2.55-.23,3.86.53,1.21,1.55,2.16,2.78,2.67Z"/>
                </g>
                <g>
                  <path class="cls-27" d="M841.46,593.91c.37,1.88,2.03,3.13,3.71,2.79,1.67-.33,2.73-2.13,2.35-4-.37-1.88-2.03-3.13-3.71-2.79-1.67.33-2.73,2.13-2.35,4Z"/>
                  <g class="cls-10">
                    <path class="cls-27" d="M841.88,595.02c-.19-.34-.34-.71-.42-1.11-.37-1.88.68-3.67,2.35-4,1.67-.33,3.33.92,3.71,2.79.06.32.07.64.06.95-2.34-.93-4.31-.15-5.7,1.37Z"/>
                  </g>
                  <path class="cls-25" d="M843.33,592.79c-.05.19-.1.38-.19.54-.17.3-.55.45-.84.27-.28-.18-.36-.59-.34-.94.04-.62.52-1.88,1.24-1.8.92.1.25,1.48.13,1.93Z"/>
                </g>
                <path class="cls-27" d="M856.37,597.03c-2.81,1.88-5.88,3.24-9.12,1.61,2.09,3.48,7.84,1.79,9.12-1.61h0Z"/>
                <g class="cls-32">
                  <path class="cls-25" d="M823.45,586.03c-.64-.13-1.36-.38-1.57-1-.1-.31-.05-.65.07-.95.53-1.31,2.12-1.8,3.52-1.99,1.9-.25,3.84-.23,5.73.05,1.73.26,4.25.62,5.52,1.95,1.14,1.19.32,2.25-1,2.72-1.71.61-3.47.09-5.21-.07-2.36-.22-4.74-.23-7.07-.71Z"/>
                </g>
              </g>
              <g>
                <g class="cls-30">
                  <path class="cls-25" d="M832.61,559.51c0,1.59,1.29,2.88,2.88,2.88s2.88-1.29,2.88-2.88-1.29-2.88-2.88-2.88-2.88,1.29-2.88,2.88Z"/>
                  <path class="cls-25" d="M840.46,547.55c0,2.65,2.15,4.8,4.8,4.8s4.8-2.15,4.8-4.8-2.15-4.8-4.8-4.8-4.8,2.15-4.8,4.8Z"/>
                </g>
                <path class="cls-25" d="M843.38,547.03c-.23.26-.51.51-.86.52-.46.02-.86-.41-.93-.87-.07-.46.11-.92.35-1.32.37-.61,1.93-2.28,2.64-1.29.6.83-.73,2.41-1.2,2.95Z"/>
                <path class="cls-25" d="M834.25,559.03c-.11.13-.26.25-.43.26-.23.01-.43-.2-.46-.43-.04-.23.06-.46.17-.66.18-.31.97-1.14,1.32-.64.3.41-.37,1.21-.6,1.47Z"/>
              </g>
            </g>
          </g>
        </g>
      </g>
    </g>
  </g>
</svg>